<svg xmlns="http://www.w3.org/2000/svg" width="1197.016" height="796.307" viewBox="0 0 1197.016 796.307">
  <g id="Map_back" transform="translate(-305.528 -129.981)" opacity="0.35">
    <path id="path10" d="M872.461,892.835c-1.851,2.126-4.87.341-2.537-2.332C870.677,889.614,873.213,891.944,872.461,892.835Z" transform="translate(-34.655 -46.759)" fill="#e3e3e3" stroke="#404040" stroke-miterlimit="10" stroke-width="0.25" fill-rule="evenodd"/>
    <path id="path12" d="M975.687,770.769c-2.056-.482-.891,4.865-.545,5.623,5.072,9.871,19.268,11.928,29,11.722.687,0-3.429-1.509-4.867-1.783-3.841-.756-8.091-.481-11.864-1.3-3.151-.685,2.059-2.125-1.645-2.538a10.012,10.012,0,0,1-8.294-5.207c-.553-1.029-.824-6.242-1.787-6.515Z" transform="translate(-41.139 -39.404)" fill="#e3e3e3" stroke="#404040" stroke-miterlimit="10" stroke-width="0.25" fill-rule="evenodd"/>
    <path id="path14" d="M1010.314,790.924a76.348,76.348,0,0,0,13.37,3.907c.409.136.55-1.094.207-1.235a76.768,76.768,0,0,0-13.374-3.973C1010.106,789.552,1009.971,790.717,1010.314,790.924Z" transform="translate(-43.33 -40.566)" fill="#e3e3e3" stroke="#404040" stroke-miterlimit="10" stroke-width="0.25" fill-rule="evenodd"/>
    <path id="path16" d="M1054.525,802.648c-.755,1.028,10.833,2.675,11.177,2.675a24.176,24.176,0,0,1,5.619.755,29.519,29.519,0,0,1,4.323-.206c1.712.206,3.36.89,5.075,1.1a36.024,36.024,0,0,0,10.214-.892c.62-.139-1.028-.546-1.578-.755-2.671-.961-2.536,1.1-4.865-.14-1.1-.544-1.921-1.711-3.086-1.987-.481-.136-.618.755-1.1.892a7.381,7.381,0,0,1-3.428-.754c-.411-.274-.134-1.442-.683-1.442-1.029.139-1.649,1.3-2.541,1.853-2.126,1.166-3.495.136-5.962.136a44.9,44.9,0,0,1-7.956-.547c-1.713-.206-4.11-2.126-5.21-.686Z" transform="translate(-46.059 -41.321)" fill="#e3e3e3" stroke="#404040" stroke-miterlimit="10" stroke-width="0.25" fill-rule="evenodd"/>
    <path id="path18" d="M1325.136,733.362c1.1,1.712-5.074,11.036-7.4,7.883-1.028-1.371-.135-3.565.754-5.008.345-.615.758,1.372,1.441,1.442,1.44.136,4.937-4.868,5.21-4.318Z" transform="translate(-62.223 -37.103)" fill="#e3e3e3" stroke="#404040" stroke-miterlimit="10" stroke-width="0.25" fill-rule="evenodd"/>
    <path id="path20" d="M835.93,854.884c3.566-2.331,7.133-5.009,10.493-7.544,3.632-2.812,5.277-6.924,8.98-9.255,1.508-.894,3.224-1.375,4.73-2.332a68.123,68.123,0,0,0,7.2-6.1s5.553-2.538,3.085-2.331" transform="translate(-32.616 -42.884)" fill="#e3e3e3" stroke="#404040" stroke-miterlimit="10" stroke-width="0.25"/>
    <path id="path22" d="M361.749,453.769l4.32,3.636-.892,1.782-3.428.136-.41,3.429,7.61,9.941,2.538-2.124,4.32.135,2.125,5.418,2.741,5.415h6.31l1.989,3.635.891-1.852,5.075,3.087,4.32,1.1,3.564-.412,3.976,3.636,3.085,5.76,5.211,1.643,1.987-1.986,1.991.684-1.1,5.28,1.991,3.016.343,2.948,4.182-.2,1.989,2.125-2.54,4.525.756,1.989,2.672.341,1.442-3.563,2.675.687,3.976.411,2.193-2.744,1.784,1.1-.686,2.331,1.782,1.99-1.988,3.768,1.235,1.439.546,5.42,7.611,4.181,1.237-2.535-.689-3.086,5.008.89-1.237,3.978,2.333.753,1.784.138,3.082,3.977.755,6.17,3.773,3.225-5.622,5.963,9.049,9.463-2.877,3.975-.55,4.663c-4.527,2.191-5.073,2.4-5.073,2.4L453.9,569.1l-3.634,4.869-3.084,1.439-3.566-.89-3.293-4.527L437.1,571.43l-6.307-2.674-3.977-1.785-6.1-.414-3.637,2.2-6.307-5.417L405.153,563l-5.76-3.634-5.211-.343-4.526,3.768-8.637-5.9-2.332-4.661-1.44-4.318-3.427,3.222-2.745-4.526-3.564,1.851-2.743,4.868L361.546,556l-3.977.89-3.771-2.538-1.646,3.775h-3.222l-1.646-1.578.2-3.632,3.978-3.912-1.3-3.838-1.989-1.441.96-2.126-2.741-1.645-2.128,1.645-2.539-.891L337,542.633l-4.115-2.469-1.441-2.536-.2-6.172-1.991-3.429-2.879-.891-5.967-1.03-2.126-2.741-1.3-7.406-2.881-2.126-3.018-3.633-3.426-3.772-1.989-3.085,2.537-8.3,1.99-6.309,4.867-3.087,2.332-3.016L325.276,479l.2-4.32,2.676-4.663.547-5.278,2.194-4.457,3.224-5.073,2.193-1.648,4.113-3.016,1.44-6.513,2.537-.206,5.074,5.965,6.858-.343,1.574,3.428,3.839.89Z" transform="translate(0 -19.297)" fill="#e3e3e3" stroke="#404040" stroke-miterlimit="10" stroke-width="0.25" fill-rule="evenodd"/>
    <path id="path24" d="M405.847,477.049l3.976-12.824,3.222-1.1-2.468-3.016,2.331-5.418-.2-1.784,4.183-4.387h2.879V444.2l3.428-2.537.344-1.577h1.989l4.112,2.878,3.29-1.3,2.881.96,3.085-2.4,3.223,2.4,2.675-2.4,3.29-.343,1.578,1.441,2.539.892,2.536-1.579,2.193.891,1.782-.891,6.651-.2,1.1-2.126,1.646.138,1.44,2.192,2.127.138,1.094-5.211-2.192-.685-3.771-.55-2.331-1.645-.343-4.317-2.882-1.1,3.566-3.223,1.3,1.236,1.576-2.674,3.429-1.991-1.784-3.428,1.989-2.537.551-4.319L474,402.722l3.428.96-.687,2.33,1.785,1.579,3.084-1.442,7.542,3.979h2.538l1.3-6.651h2.88l12.068-6.309,3.223-7.609,1.781-.481,1.989,1.92,3.086-4.458L516.579,384l.756-4.321,2.33.891,3.977-2.329.688,1.576h6.3l1.784-2.126,3.976-.891,2.536-7.612.549-4.319-4.114-3.426-2.947-2.539-1.921-3.977-3.975-2.468-1.1-3.839s4.323,1.1,2.536-1.439c-1.848-2.47-1.437-3.566-1.437-3.566l-.755-4.731,3.428-1.235-.137-4.318-6.376.341-2.88-1.644,1.647-3.772-1.234-1.989h-2.539l-2.2-2.879-1.782-.343-.2,4.114-2.882.412-.343-3.635-1.78,3.088-5.281.547-3.909-1.988-.548-4.321-4.182-1.988.2-2.194-1.988.342-1.989-.685,2.332-7.953-1.236-.686-1.643,1.577-1.784-6.309-5.211.549-3.633-3.017,1.234-2.194-2.127-1.782-2.741.548-1.441,2.469-4.661-1.578-6.17-6.72-3.774.206-.138,4.115-1.1,4.935-.753,4.459-2.127,3.289-3.977,3.429-6.513.685h-6.308l-5.211.755-1.786,5.348-4.523,3.839L417.022,330.8l-5.554,4.32-6.651,3.632-3.289,4.663L355.38,392.848l4.869,4.32.549,11.725-.891,10.422-2.4,3.84-1.921,1.782-.754,5.76,4.527-2.193,7.4,8.158L364.57,444.2v.137l.2.068,4.32,3.637-.892,1.781-3.428.137-.41,3.428,7.609,9.941,2.539-2.123,4.319.135,2.126,5.418,2.74,5.415h6.311L392,475.814l.892-1.852,5.075,3.087,4.32,1.1,3.564-.342v-.754Z" transform="translate(-3.024 -9.936)" fill="#e3e3e3" stroke="#404040" stroke-miterlimit="10" stroke-width="0.25" fill-rule="evenodd"/>
    <path id="path26" d="M547.351,503.8l.685-1.783-2.126-2.743,1.234-1.576-.137-2.2-9.736-7.746-.961-3.772-1.439-.206-1.577,2.331-4.321-.892-2.537-1.645-2.538-.684-3.087.684-.341-2.332,1.987-2.878-1.646-2.128-2.536,2.469-.549,3.43-1.44-2.331-.686-2.332.686-2.537-.136-1.577-.206-4.388H512.52l-4.115-.48-1.3-1.852-.342-2.537-1.1-.892-4.319-.137.2-2.4h3.77l2.539,1.645,1.1-.892-1.647-2.536v-2.881l-4.525-1.233-1.1-2.879L499.9,448.6l5.966-5.007-5.76-1.85-1.645-6.995,1.44-1.44-1.784-2.74-.891-1.443h-1.3l-.892-4.319,1.1-.891-1.3-3.975-.139-2.537H492.5l-7.542-3.979-3.084,1.441-1.785-1.579.687-2.331L477.344,410l-2.123,7.611-.552,4.319-1.988,2.536,1.783,3.429-3.429,1.991-1.576,2.674-1.3-1.237-3.566,3.224,2.882,1.1.344,4.317,2.33,1.645,3.771.551,2.192.685-1.094,5.211-2.127-.137-1.44-2.192-1.646-.139-1.1,2.127-6.651.2-1.782.89-2.193-.89-2.536,1.579L453,448.6l-1.578-1.441-3.29.342-2.675,2.4-3.223-2.4-3.085,2.4-2.88-.959-3.291,1.3-4.112-2.878h-1.989l-.344,1.577-3.428,2.536V455.8h-2.879l-4.183,4.387.2,1.784-2.331,5.417,2.468,3.017-3.222,1.1-3.976,12.824v.684l3.976,3.636,3.085,5.76,5.211,1.643,1.987-1.986,1.991.684-1.1,5.28,1.991,3.016.343,2.948,4.182-.2,1.989,2.125-2.54,4.525.756,1.989,2.672.341,1.442-3.563,2.675.687,3.976.411,2.193-2.744,1.784,1.1-.686,2.331,1.782,1.991-1.988,3.768,1.235,1.439.546,5.42,7.611,4.181,1.237-2.535-.689-3.086,5.008.891-1.237,3.977,2.333.753,1.784.138,3.082,3.977.755,6.17,3.773,3.225-5.622,5.963,9.049,9.463-2.877,3.975-.55,4.663a3.953,3.953,0,0,1-.549.275l.207.273,5.346,2.88,1.1,5.418,2.744,5.413,7.884,3.634-.136,5.765,2.537,4.524,2.672-.208v-3.771s4.871-5.756,4.871-6.169c0-.342-1.441-8.3-1.441-8.3l-1.987-7.546.2-2.74,3.77-4.661,2.539-6.515,1.988,1.3,4.322-2.128.135-4.525,3.087-.48v-3.637l2.33-2.876,2.538.546,2.536-4.73,2.879-2.674L522.8,533.9l3.086-2.125,5.76-.959h4.112l6.171,1.1,2.676.894-.55-7.2.206-3.429.892-3.016-1.441-7.061-.685-5.075,4.662-1.989-.343-1.233Z" transform="translate(-6.368 -17.216)" fill="#e3e3e3" stroke="#404040" stroke-miterlimit="10" stroke-width="0.25" fill-rule="evenodd"/>
    <path id="polygon28" d="M497.545,597.746l4.664-6.511-.48-5.764-1.646-5.41-1.3-6.656,3.839-5.415,2.539-6.31,2.878,1.1,3.908-2.674v-3.976l1.645-.344,1.3-.207-.411-3.222,2.743-2.674,3.016.137,1.852-4.661,3.77-3.426,4.867-3.635,4.87-1.442,4.867-.548,3.086,1.3,3.771.341,2.88,1.1-.548-4.731-.343-4.868,1.1-3.906-.961-4.731-1.027-4.664-.207-2.744,4.663-2.674,5.828,2.674,3.225-1.576,2.88,1.987,1.441,1.783.754,2.677,4.456.411,2.743-1.3h1.233l2.331-1.987,1.647.341.89,2.744.206,3.772,1.783,2.194,1.988-2.881,1.1.891,1.437,3.088,2.881,2.33,3.224.548,2.878,1.442,3.292.891,3.018-1.1,3.429-.752,2.4,1.3,1.92,2.881,2.4,3.082,3.222,1.579,2.881-1.235-.344-3.633,3.222.891,1.992-.344-.344-1.783-2.744-2.534.207-1.442,3.222.891,1.646-.891.344-2.674,2.537,1.439,1.646-2.744h1.78l1.785,3.979,4.865-1.1,4.87-.682,3.839.545,3.77.55,2.674-.754,4.868.341.757-3.566,5.963.14h3.429l2.333,1.1,2.124,3.088,1.1,2.671.545,2.744-.2,2.674.413,2.194,1.439.891-1.648,1.783-1.643,3.635h-2.878l-2.33-1.3-1.785-2.881-3.289.548-1.783,5.074-3.429.891-1.649-1.442-4.454,1.987-3.979-5.62L644,543.512l1.922,3.225-4.32.958-4.664-2.194-1.989-3.429H627l-2.467,2.193,5,6.31-2.126,1.78L622,546.94l-3.635,5.211-4.524,4.32v3.292l-5,1.576L606.5,560.1l-2.537,2.263-7.2.2-2.193,6.994L582.294,581.7l-9.942-1.643-1.234,2.328-7.953.548-5.007,1.99-11.588-1.783-10.765,1.232-11.928.754L520.1,588.9l-4.525,3.979-1.99,4.111-5.554,4.32-11.175.2Z" transform="translate(-11.76 -23.399)" fill="#e3e3e3" stroke="#404040" stroke-miterlimit="10" stroke-width="0.25" fill-rule="evenodd"/>
    <path id="polygon30" d="M603.074,515.842l-1.987.137L599.3,514.54l.548-2.126-2.4-.891-1.439-2.535,1.1-1.853-2.126-3.018-2.741-.891-.207-2.535,1.1-1.442.2-4.317-.548-4.186,2.33-.889.344-1.646-3.018-1.99,1.442-7.338-2.333.344.891-3.633-1.646-1.99.344-.891,1.646-.2.754-3.361-.958-3.976.958-5.418.478-2.878,1.1-3.635-.548-1.987.891-2.674.207-2.333,2.328-1.3,1.1-4.317-2.124-2.881.685-4.87-1.987-7.061v-4.457l-1.648-1.643-.341-3.429,1.646-1.783H598v-2.881l1.99-3.084h1.648l.341-3.223-1.1-3.292L598,399.691l2.54-1.644-.55-8.641-2.878-3.223.754-3.086-1.853-3.975,1.1-3.429v-2.878l2.534-.139,1.646-2.537-1.1-1.3,1.1-2.33-.2-4.115,3.772-.753.548-1.646-3.77-3.428.2-1.781-.411-1.647,1.1-.478-1.646-1.1,1.442-3.087,1.1-1.1v-1.987l-2.331-.138-1.442,2.675-6.1-3.223-2.744,1.1-3.222-1.1-.207-2.881-3.086-.2-.891,3.221-5.759,5.966-2.331.411-1.988.686-6.514-.548-2.126,1.44-1.852-1.235-1.783.686-4.661-.137-1.3-1.85-1.988.41v4.458l1.1.2.546,2.536h-1.781l-.549,3.087-4.662.137-1.3,3.086-2.743-.138.616.481,4.115,3.427-.549,4.319-2.536,7.612-3.976.891-1.784,2.125h-6.305l-.688-1.576-3.977,2.329-2.33-.89-.756,4.321,1.44,2.536-3.085,4.458-1.989-1.92-1.781.48-3.223,7.61-12.068,6.31h-2.88l-1.3,6.651h-.344l.139,2.537,1.3,3.976-1.1.889.892,4.32h1.3l.891,1.442,1.784,2.741-1.44,1.439,1.646,7,5.76,1.847-5.966,5.007,1.782,3.292,1.1,2.881,4.525,1.232v2.881l1.648,2.535-1.1.894-2.539-1.646h-3.77l-.2,2.4,4.319.137,1.1.891.342,2.537,1.3,1.85,4.115.481h3.428l.205,4.387.136,1.579-.686,2.537.686,2.33,1.44,2.333.549-3.431,2.536-2.47,1.646,2.129-1.987,2.878.341,2.33,3.087-.682,2.538.682,2.536,1.646,4.32.891,1.577-2.33,1.439.207.961,3.772,9.736,7.746.137,2.2-1.234,1.576,2.125,2.741-.684,1.783.135.548,5.828,2.674,3.225-1.576,2.88,1.987,1.441,1.783.754,2.677,4.456.411,2.743-1.3h1.233l2.331-1.987,1.647.341.89,2.744.206,3.772,1.783,2.194,1.988-2.881,1.1.891,1.437,3.088,2.881,2.331,3.224.548,2.878,1.442,3.292.891,3.018-1.1,1.92-.408-.07-1.028Z" transform="translate(-11.971 -13.01)" fill="#e3e3e3" stroke="#404040" stroke-miterlimit="10" stroke-width="0.25" fill-rule="evenodd"/>
    <path id="path32" d="M668.748,309.52l-2.331-.892-.55-2.536H662.99l-2.675,2.949-2.536-.206-1.646,2.538-4.871-2.331-4.865,1.44-.343,1.576h-2.743l-2.468,2.538-1.647,4.868-.892,1.782h-2.537l-.893,4.185L632,325.224l-5.073,6.855h-1.236l-1.439,1.646-2.193.136-1.441,1.1h-5.075l-6.1,7.061-5.692,2.605.138-.821-.411-1.647,1.1-.479-1.645-1.1,1.441-3.088,1.1-1.1V334.41l-2.329-.139-1.442,2.676-6.1-3.223-2.744,1.1-3.222-1.1-.206-2.881-3.087-.2-.892,3.222-5.759,5.966-2.331.411-1.988.686-6.514-.548-2.127,1.44-1.852-1.234-1.783.686-4.661-.138-1.3-1.85-1.989.409v4.459l1.1.2.546,2.536H555l-.55,3.087-4.661.137-1.3,3.086-2.263-.137-2.265-1.166-2.331-4.663-3.974-2.674-1.03-3.29,2.676-1.233-1.783-3.087-.755-3.223v-2.881l3.634-1.3-.343-3.773-1.646-.341-2.193.683-2.675-.683.343-1.3,1.1-1.92,2.879-.413-.343-4.661,2.879,1.234,1.233-1.234L539.5,313.91l-.41-3.292.753-2.126.549-3.839-.343-1.441-3.637-1.236.893-2.534,3.43-.343,6.1,2.331,2.537-1.988-.136-4.115.341-2.878,1.989,2.329,3.773-.547-1.99-3.634,2.536-1.783,4.664,1.1,5.417-1.85,2.742-.344.892-2.879,2.878,1.3h2.537l1.991,4.868,3.427.48.891,4.868,1.579-.135.411-5.074,2.33-.687,2.332-7.953-.206-3.635,1.987-3.017,3.293.137,5,.892.96-2.88-3.978-2.469,1.783-5.416-1.1-1.989,5.622-1.99.139-2.879,2.193-.547-.343-5.074L599.7,251.1l-4.662.411.138-3.085-.891-1.647,1.646-1.1,4.112.206,1.442-2.676-1.03-4.321-2.537-2.537-2.743-.753-.138-3.773-3.974-5.21-.894-3.087-1.441-1.643,1.988-4.116-1.506-.343-2.33,1.921-1.03-.685-.755-1.782h-1.781l-.893,1.782-2.4-2.675h-1.781l-.686-2.537,1.028-2.331-.892-4.526-3.77-.549-.343-1.643,2.674-.137-1.645-2.2,2.742-2.331-5.075-6.17.207-1.577,1.647-.411.48,1.508,1.99-1.508,5.621-9.327-1.988-1.1.344-2.537-1.1-1.646,1.3-1.781-.2-3.429,2.191-1.783,1.1-1.441L580.23,166.9l-3.086-3.427,6.721,1.3,3.22.549,3.086-2.2,2.674,3.975s1.645,1.441,5.212.343a10.815,10.815,0,0,1,5.966-.343l5.622,2.538,5.895,3.017,6.172.548,2.126.549,2.193-1.442,2.333,3.979,3.77,2.332.96,3.426,3.773-.684,3.976-3.291,8.09,2.88.754,5.075,4.869-.207,5.554,3.976,3.084-1.988,12.412-.893.754,10.833,3.225,1.235v5.281l7.4-.549,4.527.343,2.125,1.44,2.742-3.224,3.223,1.442,5.416,3.017,3.774.753-3.567,5.212-.206,3.769h-4.524l-2.126,1.648.137,5.21,1.645.412-.2,2.331-3.429-1.643-1.578-1.786-.411-1.438L693.293,221l-1.232,2.88.891,5.28,1.234.891-1.1,3.428-4.662,1.578,1.782,7.61-4.322,3.225-3.976,5.21s-1.781,4.321-2.123,5.828c-.411,1.44-.754,2.673-.754,2.673l-4.322,1.785-2.879,2.331,2.331,6.511-1.783,1.784,2.127,2.948.411,2.331-1.3,5.212,1.44,4.524.754,3.772-1.783,3.429-.754.685-2.194,2.4-.891,2.881-2.674,2.125,1.988,1.647,1.782-.548.343,5.209-2.879.892Z" transform="translate(-14.016 -2.031)" fill="#e3e3e3" stroke="#404040" stroke-miterlimit="10" stroke-width="0.25" fill-rule="evenodd"/>
    <path id="polygon34" d="M581.515,214.148l-.342.753v-2.674Z" transform="translate(-16.946 -5.051)" fill="#e3e3e3" stroke="#404040" stroke-miterlimit="10" stroke-width="0.25" fill-rule="evenodd"/>
    <path id="polygon36" d="M581.24,163.716h0Z" transform="translate(-16.946 -2.067)" fill="#e3e3e3" stroke="#404040" stroke-miterlimit="10" stroke-width="0.25" fill-rule="evenodd"/>
    <path id="polygon38" d="M594.36,250.864l-4.664.411.14-3.085-.891-1.647,1.646-1.1,4.111.206,1.442-2.675-1.028-4.321-2.537-2.536-2.741-.753-.14-3.773-3.974-5.21-.894-3.086-1.439-1.643,1.987-4.116-1.506-.343-2.331,1.921-1.03-.685-.754-1.782h-1.782l-.892,1.782-2.4-2.674H572.9v-.067l-.687-2.47.687-1.579v-2.674l-.55-2.6-3.77-.549-.343-1.644,2.674-.137-1.646-2.2,2.742-2.331-5.075-6.17.207-1.576,1.647-.411.479,1.508,1.99-1.508,1.646-2.677,3.975-6.65-1.988-1.1.344-2.537-1.1-1.646,1.3-1.781-.205-3.429,2.192-1.784,1.1-1.44-3.636-1.646-1.987-2.2-.893-1.027-6.854.343-4.526-.343-4.868-1.781-3.018-1.647-5.073-.755L534.5,163.991l-3.223-1.853-1.988,2.194-4.182-1.784-2.331,1.442-8.091-2.193-6.857-.343-10.49-.549-3.223,3.427-1.438,5.418-.549,5.76-9.6,3.77-4.116,4.319-7.2,4.733-4.525-1.853.55-3.565-6.856-.755-2.332-2.126L449,181.613l-.136,2.536,2.466,2.879-1.026,2.194,1.577,2.127v1.3l-2.331,1.783-.892,4.731,2.332,1.784.891,4.524-5.211,5.417.548,5.76,4.319,1.438.549,4.459,4.319,6.377,2.332.685-1.782,5.76,3.771,4.73.2,5.555,2.333,2.879.549,3.771,1.781,3.085,2.2,1.988,3.977,1.783V262.8l-3.087,1.438-4.525-.891-3.977,2.675,2.4,2.878v5.418l3.017,1.1.207,8.3,3.567-.206,6.17,6.72L480.2,291.8l1.44-2.469,2.741-.549,2.127,1.783-1.234,2.194,3.633,3.018,5.211-.549,1.784,6.308,1.643-1.577,1.237.686-2.332,7.953,1.988.685,1.988-.342-.2,2.194,4.182,1.988.548,4.321,3.908,1.988,5.281-.547,1.781-3.088.343,3.635,2.882-.412.2-4.114,1.782.343,2.2,2.88h2.539l1.234,1.989-1.646,3.772,2.88,1.644-.137-.341.342-1.3,1.1-1.92,2.879-.413-.343-4.661,2.88,1.235,1.233-1.235-2.125-3.221-.41-3.292.753-2.126.549-3.839-.343-1.44-3.636-1.236.894-2.535,3.43-.344,6.1,2.332,2.537-1.988-.137-4.115.341-2.878,1.989,2.329,3.772-.547-1.989-3.634,2.536-1.783,4.664,1.1,5.418-1.849,2.742-.345.892-2.879,2.879,1.3h2.536l1.991,4.867,1.234.138,2.193.342.891,4.868,1.578-.135.411-5.075,2.33-.687,2.333-7.953-.206-3.635,1.988-3.018,3.292.137,5,.893.961-2.881L589.7,271.3l1.786-5.416-1.1-1.988,5.622-1.99.137-2.879,2.2-.547-.346-5.074Z" transform="translate(-8.673 -1.793)" fill="#e3e3e3" stroke="#404040" stroke-miterlimit="10" stroke-width="0.25" fill-rule="evenodd"/>
    <path id="polygon40" d="M581.1,163.716h0Z" transform="translate(-16.942 -2.067)" fill="#e3e3e3" stroke="#404040" stroke-miterlimit="10" stroke-width="0.25" fill-rule="evenodd"/>
    <path id="path42" d="M820.218,407.824l.136-4.663h-1.78l.546-5.964-1.44-3.977,1.44-.892,1.234,1.1,1.3-.206.138-2.33,7.061-2.539-.206-2.537,5.76-2.537.754-1.44,3.565-1.234-4.457-8.5,1.236-1.576-2.675-9.052,2.125-.686.206-1.646-1.3-.754-1.575-2.674,3.974-5.211-2.878-2.537,1.233-2.331-.206-4.32-4.458-.755,2.468-2.673-2.468-2.4-.547-2.469-1.442-1.645-6.308.892-.959-1.1,3.087-1.232-.55-1.3-3.222-.683.685-2.193,4.388.751-.548-4.318-1.441-.412-.958-2.126,2.739-.344v-3.974l-3.769-2.743,2.536-3.976,4.319-3.566,2.674-3.427-1.439-5.966-5.759.892-.206-1.03,1.989-.96-1.578-1.028.481-1.851,2.88.891.548-1.578-2.676-.892,1.783-3.425-3.427-3.638-1.441-4.524h-1.988l-.138-3.426,3.224-.344.548-4.117,3.977-2.738-1.989-3.568-2.537.343-5.76-7.746h-1.1l-.547,3.222-.892.548-1.646-5.621-1.989-8.777,4.182-2.4,1.783,2.537,2.742-4.318.686-5.211-2.537-.207-.343-2.537-2.331.413-.344-7.065-3.974-3.082,1.1-6.995-3.633-3.978.548-4.869-4.733-2.878-.684,4.524-3.224-.206-3.839,4.525-3.221-.754-7.2,3.087-5.074,7.4-4.114,3.016L774,220.09l-.138-5.555-7.952-1.647-.343-.2-7.407,4.183-2.537.343-.891-4.869-4.182-3.224v-2.192l.549-1.987-1.99-.9-8.636,9.6-8.983.137-.551-2.331-2.537-3.086-3.22.55-.755,6.855-3.636,1.442-3.015,4.319-3.978-2.539h-4.525l-2.126,1.648.138,5.21,1.645.412-.2,2.331-3.429-1.643-1.578-1.786-.411-1.438-1.235-.207-1.233,2.88.891,5.28,1.234.89-1.1,3.429-4.663,1.578,1.783,7.61-4.322,3.224-3.976,5.211s-1.781,4.321-2.123,5.828c-.412,1.44-.754,2.673-.754,2.673L683.5,263.9l-2.88,2.331,2.332,6.511-1.783,1.784,2.127,2.948.411,2.331-1.3,5.212,1.44,4.524.754,3.772-1.783,3.429-.754.685-2.194,2.4-.891,2.881-2.675,2.125,1.989,1.646,1.782-.547.343,5.209-1.92.618.893,3.222,2.466.892L682.4,318h2.537l-4.869,9.738,4.319,3.289-.343,4.663,4.321,1.44,1.782,1.234-.137,2.193,2.331,2.332h2.674l.41,2.538,1.44-.343,1.237-.755,1.644.343.892-1.577,1.782.686-.687,3.085s1.783-.893,1.783,1.646a14.134,14.134,0,0,0,.206,3.222l2.674-2.194v4.525l-3.085.892-.344,5.967,3.771,1.781-.549,1.851,1.3,1.784-4.73.2-1.92,1.783L697,366l-.685,1.988,1.989,2.333-.892,8.09,4.115.206-.206,3.771,2.538,5.759,4.729,6.309,1.577,2.193,3.088-.892.753-1.645a3.786,3.786,0,0,0,3.907-.343c1.853-1.44,2.4-1.782,2.4-1.782l3.772.686-.2,1.1,9.736-.206,1.783-1.576,5.622-.962,1.235-2.124,9.94,3.976,1.442-3.976,1.987.137,1.645,1.853,1.989-1.3,3.772,4.524,1.233-.343,1.853-3.634,2.333-.891,1.985,2.536,3.018.206,1.647-4.526.342-.206,3.977.345s-1.782-2.129,0-2.332l1.782-.138.753-1.851,1.784.2.206,2.332h1.99s1.44.55,1.234,2.743c-.139,2.126,1.988,4.114,1.988,4.114l-1.577.89.138,3.772,2.329,1.44-3.016,5.827,4.115,4.321-3.428,2.331,1.439,2.674,11.587.755,4.115-1.441,1.646,2.537,1.577-1.44.893-3.84,5.074.206,2.192-3.427,3.771,2.194,1.644-.55-1.438-1.1Z" transform="translate(-22.797 -4.548)" fill="#e3e3e3" stroke="#404040" stroke-miterlimit="10" stroke-width="0.25" fill-rule="evenodd"/>
    <path id="polygon44" d="M608.861,353.526v0Z" transform="translate(-18.649 -13.742)" fill="#e3e3e3" stroke="#404040" stroke-miterlimit="10" stroke-width="0.25" fill-rule="evenodd"/>
    <path id="polygon46" d="M609,353.155v.071l-.14-.138Z" transform="translate(-18.649 -13.715)" fill="#e3e3e3" stroke="#404040" stroke-miterlimit="10" stroke-width="0.25" fill-rule="evenodd"/>
    <path id="polygon48" d="M608.414,355.93l-.134,1.506.545.549v-2.192Z" transform="translate(-18.613 -13.882)" fill="#e3e3e3" stroke="#404040" stroke-miterlimit="10" stroke-width="0.25" fill-rule="evenodd"/>
    <path id="path50" d="M709.456,454.17l-1.645.2-.342-1.987,1.232-1.3s-1.988-4.32-.891-4.663,1.3-2.331,1.3-2.331l-1.986-1.645-.962-3.634,3.839-5-2.536-.892-1.784.343-1.1-1.442-1.645.344-.55-.892,2.742-3.632v-1.579l-3.084.137.2-2.538,2.126-1.439v-2.33l1.645-3.222-.755-1.442,1.988-1.988,1.1.893.891-2.537-3.77-3.566.684-2.2h3.977l-.345-.206.345-1.919-1.716-1.235-.067.137-3.088.891-1.577-2.192L698.968,395l-2.538-5.758.206-3.771-4.115-.207.892-8.09-1.989-2.332.685-1.988,3.84,2.331,1.92-1.783,4.73-.2-1.3-1.784.549-1.851-3.771-1.782.344-5.967,3.085-.891V356.4l-2.674,2.193a14.136,14.136,0,0,1-.206-3.222c0-2.539-1.783-1.646-1.783-1.646l.687-3.084-1.783-.687-.891,1.578-1.644-.343-1.237.755-1.44.344-.41-2.538h-2.674l-2.332-2.332.138-2.193-1.782-1.235-4.321-1.44.343-4.662-4.319-3.289,4.869-9.739h-2.537l-.551-2.125-2.466-.892-.893-3.222-.96.272-2.33-.892-.55-2.536h-2.877l-2.675,2.95-2.537-.206-1.645,2.537-4.871-2.33-4.865,1.439-.344,1.576H647.2l-2.468,2.539-1.647,4.868-.892,1.782h-2.536l-.893,4.185-2.877-.206-5.073,6.855h-1.237l-1.438,1.645-2.194.136-1.441,1.1h-5.074l-6.1,7.062-5.212,1.921V355.5l3.223,2.879-.548,1.646-2.675.549-1.1.2.2,4.114-1.1,2.329,1.1,1.3-1.645,2.537-2.536.139v2.877l-1.1,3.429,1.852,3.975-.755,3.087,2.879,3.223.55,8.641-2.539,1.643,2.88,2.332,1.1,3.292-.343,3.223h-1.646l-1.99,3.085v2.879h-2.674l-1.645,1.784.341,3.427,1.648,1.645v4.457l1.988,7.062-.685,4.869,2.126,2.88-1.1,4.318-2.33,1.3-.206,2.331-.892,2.674.548,1.988-1.1,3.636-.478,2.878-.959,5.417.959,3.978-.755,3.36-1.644.2-.345.892,1.645,1.99-.89,3.633,2.331-.343-1.442,7.336,3.019,1.99-.344,1.647-2.331.89.549,4.184-.206,4.318-1.1,1.441.207,2.536,2.741.892,2.128,3.017-1.1,1.852,1.438,2.536,2.4.891-.547,2.125,1.783,1.44,1.1-.066.892-.069,1.1,1.784.069,1.029,1.509-.344,2.4,1.3,1.919,2.88,2.4,3.083,3.224,1.579,2.879-1.236-.343-3.631,3.222.891,1.991-.344-.344-1.782-2.742-2.537.206-1.44,3.222.891,1.645-.891.344-2.674,2.537,1.44,1.646-2.744h1.779l1.786,3.978,4.867-1.1,4.868-.68,3.84.546,3.77.548,2.675-.754,4.869.34.755-3.563,5.962.139h3.43l.547.273.48-4.73,1.646-3.841-1.1-2.673,2.743-3.428-1.3-8.5-1.579-1.991.138-6.308,1.989-1.781-.891-2.881,1.646-3.221,3.427-3.84,2.675-.344-.344-4.113,1.99-1.646,2.537-.752,1.234,1.3,1.781-.55V458.49l4.184.206,1.1,2.47,2.878-.344c.686.89,4.663-.549,4.663-.549l-.548-2.332,3.634-1.233,1.1,1.439,2.125-.753-1.783-3.224Z" transform="translate(-17.903 -11.401)" fill="#e3e3e3" stroke="#404040" stroke-miterlimit="10" stroke-width="0.25" fill-rule="evenodd"/>
    <path id="polygon52" d="M608.643,352.942l.2.137Z" transform="translate(-18.636 -13.706)" fill="#e3e3e3" stroke="#404040" stroke-miterlimit="10" stroke-width="0.25" fill-rule="evenodd"/>
    <path id="polygon54" d="M608.811,353.594l-.545,1.166-.207-.892.752-.343Z" transform="translate(-18.6 -13.742)" fill="#e3e3e3" stroke="#404040" stroke-miterlimit="10" stroke-width="0.25" fill-rule="evenodd"/>
    <path id="path56" d="M775.682,574.6l3.635.546,1.988-3.838v-4.321h5.007l1.645-.343-1.235-3.22,2.33-2.4,7.063,7.407,4.867.409,2.88,5.555,4.664-.688,1.642,1.236,1.991-2.332,5.553-.409.893,2.947,5.278-.754,2.88-3.085,3.773,2.88,1.988-.483v-4.867l-2.333-2.742,1.441-1.646,1.234,1.305,5.074-2.2.549-5-2.742-3.84,5.621-8.02,2.33-1.647-.2-1.991,3.291-1.917,2.879.48,4.869-4.457-1.851-1.3,1.851-3.974-.414-3.227-3.22-.546.342-1.99,2.538-.686-.2-1.3-2.126-.89-1.3-5.006-5.348-3.291V512.41l2.676-.344-1.99-2.536-6.857-.892-2.674-11.861.893-3.29-1.99-.9-2.329,1.991-2.333-1.645-.409-3.223,3.839-2.194-.209-3.908h-2.875l-.756-4.731,1.989-.548.548-2.881,1.989.206.2-1.782,2.881-.549v-1.1l-1.3-.547-.547-4.663-1.58-.754v-1.99l3.225-1.1V460.3l-1.644.41-1.235,1.235-3.636-1.1-.479-3.978-.2-2.124-4.321-.343-1.439-5.076-2.333-1.3.344-3.359,3.977-.206,1.03-3.633-1.578-3.772,1.1-1.645-2.742-3.771-2.536-5.007,2.741-2.948-2.606-2.951-1.371.483-3.771-2.194-2.193,3.427-5.073-.206-.893,3.84-1.577,1.44-1.646-2.537-4.115,1.441-11.587-.755L787.957,423l3.428-2.331-4.116-4.321,3.017-5.827-2.329-1.44-.138-3.772,1.577-.89s-2.127-1.989-1.988-4.114c.206-2.193-1.234-2.744-1.234-2.744h-1.99l-.206-2.331-1.784-.2-.753,1.851-1.782.138c-1.782.2,0,2.332,0,2.332L775.682,399l-.342.206-1.647,4.525-3.018-.206-1.985-2.536-2.333.891-1.853,3.634-1.233.343-3.772-4.524-1.989,1.3-1.645-1.853-1.987-.137-1.442,3.976-9.94-3.976-1.235,2.124-5.622.961-1.783,1.577-9.736.206.2-1.1-3.772-.687s-.548.344-2.4,1.783a3.786,3.786,0,0,1-3.907.343l-.753,1.645.067-.137,1.716,1.235-.345,1.919.345.206H711.3l-.684,2.2,3.77,3.566-.891,2.537-1.1-.893-1.988,1.989.755,1.441-1.645,3.222v2.33l-2.126,1.439-.2,2.538,3.084-.137v1.58l-2.742,3.631.551.893,1.644-.345,1.1,1.442,1.784-.343,2.536.892-3.839,5,.962,3.635,1.986,1.644s-.206,1.99-1.3,2.331.891,4.664.891,4.664l-1.232,1.3.342,1.987,1.645-.2,1.783,3.224-2.126.753-1.1-1.439-3.634,1.233.548,2.332s-3.976,1.439-4.662.549l-2.879.344-1.1-2.47-4.184-.206v3.428l-1.782.55-1.234-1.3-2.536.752-1.991,1.646.344,4.113-2.675.344-3.427,3.841-1.646,3.221.892,2.881-1.989,1.781-.139,6.308,1.58,1.99,1.3,8.5-2.743,3.428,1.1,2.673-1.647,3.841-.479,4.73,1.784.821,2.126,3.089,1.1,2.67.546,2.745-.206,2.675.414,2.193,1.439.891-.685.753.479-.2,5.76-.41.891,2.536,1.646,1.646,10.079.206,3.976,2.33,3.77,5,6.858,3.978,3.29,1.644s1.236,6.583,1.236,6.789c0,.139,2.466.55,3.153-1.1.273-.683,1.441-.479,1.509-.479.206,0,3.085,5.007,3.291,5.007l8.639-1.1,1.44,2.33-3.086,4.73,1.852,2.468,3.771-3.562,2.33.548,1.1,5.76,1.646,2.674,1.782-1.782,2.88-5.211,3.085-.344,3.429,1.918h3.564l3.085,1.993,7.2,1.644.342,3.634Z" transform="translate(-23.035 -16.295)" fill="#e3e3e3" stroke="#404040" stroke-miterlimit="10" stroke-width="0.25" fill-rule="evenodd"/>
    <path id="path58" d="M885.611,580.423l2.468-.62,1.439-1.988h2.193l1.785,1.442,3.427-1.1,3.086,1.989,1.44-1.643,3.427,1.988,2.879-.546v-2.677l5.831-1.644.753,1.781h2.88l.547,2.4h2.127l-.343-1.851,3.427-.343.755,1.238,3.22-.14.894-.755h2.88l-.138-3.77,5.76-.891.135,2.534,8.158.344.69,4.32,3.289,1.441,2.47,2.882,2.192-1.1,1.1,2.192,4.66-.892,1.99-2.74.206,4.316,5.211-.478v3.016l-1.094,1.648,4.521.343-.2-2.539,3.291.752-.548-1.985,3.564-.891v1.438l2.2-.547,1.439,2.876,4.32-1.987,1.782,3.773-3.425,4.319,2.878,6.515,5.281-.343.893,3.975,1.645,3.976.341,2.334-2.194.547v2.539l-2.126,1.782.546,1.782h4.323l6.994-4.664,5.965.553,3.425,6.855,3.639-.413v-2.33l2.122-.549v-2.879l4.184-1.236,4.457,4.115,6.511-2.537.755,1.992,4.111-.894,3.979-.547,4.873-1.99,1.231-2.879-.344-2.33,1.443-.2.2-2.473-1.442.139-.547-2.126,6.856-1.442-.892-1.99-3.838.552v-2.193l7.406-1.784,1.437,1.989,4.182-1.3-1.644-5.758,4.322-1.783,1.1,1.986,2.537-1.439.891,2.126,2.2-.89-.206,2.534-2.33,1.99.684,2.877-1.236,1.1,3.429,4.32,3.429-1.1v3.98l1.1,3.087-2.2,1.23.753,8.641-5.825,1.442,1.987,13.712,6.309.2-.686,2.54.551,2.879,2.33-.2-.2,5.757,1.3,5.419-3.841.89-.892-6.65-3.02.546-.544,4.87.544,3.975,5.213-.547,2.539,6.1-3.634,1.3,1.442,4.871,6.17,2.33-1.3,1.644-.686,1.92-1.44.2-1.644-.891-1.99.206-1.646,2.675-5.966-.551-4.319,8.162,12.276,7.335-3.226,4.182-4.732-1.438v3.974l2.538.685-.341,1.3h-4.117l-.752,2.467-5.213.547v3.089h4.322l2.54-1.235.135,2.674-7.748,1.235-1.579,1.851-2.54.547-.545-1.3h-2.88l-.2,1.44-2.127.2-.548-3.424-6.308.2-1.3-2.534-2.671.342-.209,4.321-3.974.751-1.237-1.849-6.1.892.137,2.4-2.535.141-.549-2.881-4.663.344-.548,2.538-2.33.754-.207,2.676-3.225,1.3-.341,1.988-3.976.481-.2-1.026-4.458,1.234v1.44l1.779.34.553,2.741-5.759,1.579c-.481-1.508-.757-3.218-1.3-5.211-.689-2.4-2.4-5-1.1-7.541,1.714-3.226,6.579-6.1,4.731-10.493-.551-1.16-2.469-1.094-3.29-2.121-2.33-3.088,5.07-4.664-1.031-7.613-1.576-.686-3.562.48-5.073-.345-.617-.341,1.167-4.115,1.1-5.073a12.284,12.284,0,0,0-1.439-3.564c-.136-.276-5.278-9.393-5.76-6.858-1.029,4.87,6.992,7.884,5.349,12.274-.479,1.3-2.815,1.438-3.226,2.88-1.1,4.184,6.993,1.3,8.3,2.538,1.1.958-2.2,2.126-2.537,3.563-1.375,5.693,4.8,3.088,5.072,4.733.343,2.266-1.849,4.318-3.223,6.1-.961,1.163-2.674,1.438-3.634,2.539-1.575,1.779-1.373,5.617-.342,7.538.546,1.1,2.4,1.1,2.88,2.2.273.618-.962,1.1-1.1,1.779-.48,2.331.754,5.761-1.782,7.613-1.785,1.233-8.434.823-10.492.343-1.165-.274-1.988-1.577-3.223-1.785a9.137,9.137,0,0,0-5.416,0c-1.783.686-2.4,3.43-4.32,3.908a8.769,8.769,0,0,1-7.2-1.025c-.96-.756,2.055-1.305,2.88-2.2a30.586,30.586,0,0,0,3.974-5.76c.481-1.371.413-3.014,1.029-4.318.892-1.851,2.744-3.155,3.292-5.073.277-1.1,0-3.565-1.1-3.221-1.506.479-1.1,3.08-2.194,4.315-.547.685-1.918.344-2.466,1.1-.824.961.071,3.157-1.1,3.567-1.574.55-3.013-6.034-5.073-5.759-1.166.2-.137,2.534.343,3.635,1.574,3.357,6.309,2.466,3.292,7.2-1.239,1.852-3.224,2.264-4.322,3.632-.618.686-.41,1.921-1.1,2.467-5.077,4.387-9.94.619-15.084.416l-.411-1.992-.55-4.524v-3.428l-1.44-1.99.137-6.1-3.014-4.865-.55-4.531,3.77-5.073.344-3.426,4.32-.549.2-2.672,5.211.2.206-1.85,1.646-1.1-.546-2.469-2.2-11.928-4.114.343-1.3,1.436-5,1.445-1.441-4.118,4.459-1.987-.55-4.523-5.006,1.3-.753-1.649-3.98.893-1.234-3.084-2.327-.138-.755-3.29-5.416,1.989-.893-3.224h-1.783v-1.441l2.127-.756-1.784-5.209,1.647-.894-.551-1.78-2.741-.408-.892-4.116,2.194-.893-.2-3.082,2.88-.683-.686-3.089-2.333-.553-.753-1.984-4.113.344-.55-2.128v-4.323l-1.851-.752-2.263.547v3.225l-3.224.545-1.644-4.66L895.277,631.5l-1.1-1.99-1.989.552-1.987-9.74,2.742-1.232.206-7.062-5.073,1.094-1.235-4.523-2.2-5.759,2.538-1.1-5.621-5.415-.137-3.018,1.029-1.85-2.468-3.566,2.878-1.782,3.224-.41,3.222-.137v-1.643l-3.222-.208-.48-3.289ZM992.37,743.332h0l-.142.139-1.642,3.978c-2.951-1.442-5.965-2.608-8.643-.55-1.166.96.756,4.389-.681,4.389-1.99,0-2.607-3.015-3.977-4.389-2.743-2.6-6.1-4.182-7.955-7.887-.551-1.16,2.054,1.579,3.226,2.127a11.016,11.016,0,0,0,3.975,1.441c2.671.207,5.279-.822,7.949-.685s5.216,1.1,7.89,1.438Z" transform="translate(-35.326 -27.26)" fill="#e3e3e3" stroke="#404040" stroke-miterlimit="10" stroke-width="0.25" fill-rule="evenodd"/>
    <path id="path60" d="M841.12,572.449l4.114.2,1.782,3.979,2.536-.206-.343-1.782,2.126-1.991,1.1,1.237,1.851-1.237,5.761,5.967,2.876,1.989,5.76-.409h6.789a5,5,0,0,0,.545.2l.415,3.223,3.221.208v1.643l-3.221.137-3.225.41-2.878,1.782,2.468,3.566-1.029,1.85.138,3.018,5.621,5.415-2.538,1.1,2.2,5.759,1.234,4.523,5.074-1.094-.2,7.062-2.743,1.232,1.988,9.74,1.988-.553,1.1,1.99,12.617-1.233,1.644,4.66,3.224-.546v-3.224l2.263-.547,1.851.752V635.6l.55,2.128,4.113-.343.752,1.984,2.333.553.686,3.09-2.879.683.2,3.081-2.194.894.891,4.116,2.742.408.55,1.78-1.647.894,1.785,5.209-2.127.756v1.441h1.783l.893,3.224,5.416-1.989.755,3.29,2.328.138,1.234,3.083,3.979-.892.754,1.648,5.005-1.3.551,4.524-4.459,1.987,1.44,4.118,5-1.445,1.3-1.436,4.114-.343,2.2,11.928.546,2.469-1.647,1.1-.206,1.85-5.21-.2-.206,2.672-4.319.549-.344,3.426-3.771,5.073.551,4.531,3.013,4.865-.137,6.1,1.44,1.99v3.428l.482,4.25-.343.274-.551,1.991a22.551,22.551,0,0,1-3.016.342c-1.439,0-2.946-.689-4.318-.342-1.782.411-3.015,1.986-4.732,2.468-1.233.41-2.741-.482-3.974,0-1.992.822-3.361,2.877-5.35,3.631-1.371.483-2.947-.409-4.388,0-5.826,1.717-1.851,3.7-1.781,7.2.135,4.591,0,13.371-6.034,14.468-1.509.208-1.783-3.013-3.291-3.29-.891-.138-1.234,1.645-1.029,2.537.2,1.1,1.782,1.44,2.124,2.538,1.646,5.348-2.6,8.089-5.073,12.272-.344.617-7.2,15.5-8.64,12.614-.893-1.779,2.057-5.209,1.853-7.2-.138-.893-1.3-1.166-1.853-1.849-1.026-1.375-2.469-2.609-2.881-4.325-.2-.959,1.1-1.849,1.1-2.878,0-4.73-4.869-3.087-6.516-5.76-1.1-1.853,1.235-9.049-2.877-9.049-.343,0,2.122,6.034,0,5.827-4.595-.48-1.372-12.684-9.737-7.61-7.681,4.66-.069,13.231,4.73,16.593,2.812,1.985,8.09.206,10.422,3.973.892,1.446.2,3.432.754,5.079.687,2.263,2.125,4.181,2.88,6.444,1.1,3.566-2.606,4.46-4.318,6.859-1.374,1.916-1.854,4.316-3.294,6.167-1.37,1.855-9.94,11.659-12.273,11.522-1.713-.07-.548-5.349-2.124-4.664-2.333.9.341,7.885-3.634,7.2-.824-.138-1.03-1.439-1.784-1.851-2.058-.966-4.25-2.606-6.513-2.126-1.166.271.275,2.4,0,3.633-1.852,8.438-3.221-5.9-3.565,1.783-.137,1.642.823,3.565,0,5.006-.548.956-1.854-4.938-2.879-4.32-.893.546.273,2.193-.412,2.879-2.057,2.124-3.908-2.6-4.663-2.127-.547.345-.685,5.687-.343,6.517.687,1.645,3.292,2.466,3.225,4.314-.07,1.372-2.264,1.718-3.635,2.128-.549.2-1.3-.685-1.782-.345-.411.276-.755,4.251-2.88,2.539-.275-.206.068-3.91-.684-5.075-.618-.89-2.128-1.167-2.539-2.123-.342-.822.274-1.714.343-2.537.274-2.33.961-4.595.687-6.857-.069-.96-1.3-1.372-1.783-2.193-.823-1.372-.55-4.6-2.127-4.319s.208,3.154,0,4.729c-.342,2.4-2.33,5.21-2.192,7.542.069.96,1.645,1.577,1.439,2.537-.137.823-1.92.617-2.126,1.441-.754,2.606-2.88,13.027-.411,15.154.96.756,3.7-.893,3.634.343-.135,1.85-3.428,2.191-3.976,3.976a3.762,3.762,0,0,0,1.441,3.977c.821.478,1.235-1.575,2.192-1.85.687-.139,1.372.752,2.127.752,1.1,0,2.467-1.507,3.292-.752.823.89-.618,2.467-.411,3.633.2.96,1.3,1.575,1.439,2.537.342,1.646-.138,3.356,0,5,.137,1.031.96,1.923.754,2.949a10.88,10.88,0,0,1-2.193,4.664c-.345.48-1.919-.619-1.785,0,.481,2.673,6.377,7.682-.343,7.2a3.556,3.556,0,0,1-1.3-.616l-.684-1.924-1.1-7.2-2.194-4.319-3.224-4.664-5.965-1.847-4.321-1.783-6.649-.548-6.171,1.092-10.077,2.333-6.309,4.528-2.879,1.985-1.237,3.429-2.74,1.1-2.88-3.431-2.332-1.644-3.224-.756.138,4.526v.893l-2.673,1.853.342,1.44-1.783,1.575L752.19,866.6l-8.091-2.54-9.189-5.417-3.085-5.417-1.1-5.759-7.747-3.976,2.331-2.879,3.634-2.88,10.971.2,1.441,4.665,3.291-1.439.343-4.665,4.526-3.084-2.4-7.612-2.33-1.577-.687-2.19,5.005-6.107,2.33,1.093,2.745-2.741,4.318-.684,1.784-1.1-1.44-2.538,6.718-.892-1.439-10.288L765.7,795.9l10.284-1.985,2.744-1.99,2.673-3.979-2.673-4.523,8.3-10.084L779.2,763.4l2.4-3.564L778.176,748.8l6.308-2.677-.411-1.645,4.389-3.221h6.1l.551-3.087,3.086.206,1.028,3.429.207,4.865L798.2,751.2l-1.644,3.014,3.427.755,2.535-3.425,1.784.138-1.784-3.223,2.538-5.215,1.784-.341,2.878,8.09,1.235-.545.41-2.881,5.76-5.214,1.783,2.676-2.88,3.773,3.43,1.988,2.194.2,1.919,4.662,4.388-.135-1.1-5.073,1.782-.207,1.1,2.4,3.224-1.1-.549-3.773,1.988-1.439,3.632,3.016.345,7.952,6.171,1.99,1.436-4.182,3.224-.686,4.114,2.126,3.978-2.126,4.732,1.439.136-3.978-2.124-1.435-7.751-5.764-6.511-5.208,3.632-3.292,1.783-12.751-.206-6.174-2.673-4.115-2.741-4.52-3.566-3.981-3.839,3.088-3.566-8.64-5.624,1.779-1.234-3.425-2.536.343-1.439-2.125,2.741-2.2-.96-2.879,1.988-1.644L827,683.937l-5.759.342-1.99-3.423,4.732-1.442v-9.6l2.125-2.336-1.578-8.845-2.74.414-3.977,1.575.2,2.883-2.193,1.3-3.223-1.439-1.988-4.319.549-1.3-.755-3.774-2.332-.337L807.729,650h-3.085l-1.441-2.539-5.21,1.645.892-5.758-1.44-2.192-1.646.545-.343-3.562,4.319-2.54.892-4.526-.478-10.626,5.759-4.183.892-1.44-.892-2.674-4.32-.342v-1.852l4.113-3.429-4.662-1.786-1.852-9.53-6.1.9-3.086,4.523-7.2-2.742-3.977-7.542-.685-5.28.068-.411.07.823,3.634.546,1.988-3.838v-4.321h5.007l1.645-.343-1.235-3.22,2.331-2.4,7.062,7.407,4.867.409,2.88,5.555,4.664-.688,1.643,1.236,1.99-2.332,5.553-.409.894,2.947,5.278-.754,2.88-3.085,3.773,2.88,1.989-.483v-4.867l-2.334-2.742,1.441-1.646,1.235,1.305,5.073-2.2.206-2.052.344.068Z" transform="translate(-25.669 -27.174)" fill="#e3e3e3" stroke="#404040" stroke-miterlimit="10" stroke-width="0.25" fill-rule="evenodd"/>
    <path id="path62" d="M1127.205,791.122l1.1-.891-2.331-7.063,3.636-1.441,3.014,2.539,14.608.343,3.766,3.428,5.835,3.841,10.968,5,13.368.757,5.418,8.983,4.114-.139,4.181-3.29,1.306-.344c.617,1.443,3.22,2.606,3.567,3.774.27,1.3-.62,2.671-.754,3.978-.073.958.546,2.121,0,2.878-.62.822-1.992.544-2.884,1.094-2.26,1.44-11.516,11.588-3.634,8.64,1.029-.342,1.718-1.438,2.536-2.123,2.057-1.855,10.219-10.767,13.371-9.4,1.3.549-5.143,5.01-5.416,5.417-.682,1.167-1.509,3.293-.343,3.981,1.371.819,5.417-3.981,7.2-2.2,1.028,1.029,1.028,2.883.685,4.321-.343,1.578-2.468,2.4-2.468,3.975,0,3.567,7.337-1.989,7.884-2.191.757-.136,2.125.753,1.85,1.507-.616,1.3-2.741,1.3-3.627,2.469-.417.613-.759,2.263,0,2.193,1.23-.069,6.162-4.866,5.756-.755-.068.893-2.262,1.853-1.441,2.2,1.783.754,3.975-1.03,5.762-.343,1.3.409,1.711,2.125,2.535,3.225,2.056,2.67,11.656,14.193,9.394,17.344-1.443,1.922-4.732,1.579-6.516,3.224-.887.823-.548,2.47-1.091,3.567-.417,1.1-1.992,1.778-1.787,2.944.133.894,1.577,1.511,2.537,1.444,4.456-.619,2.261-6.379,2.54-6.174,2.806,2.4,3.151,9.327,7.881,8.643.961-.072,1.239-1.716,2.194-1.783a6.169,6.169,0,0,1,3.978,1.437c.822.688.479,2.471,1.441,2.883,2.673,1.234,6.033.477,8.637,1.778,1.167.619.616,3.022,1.783,3.638.753.407,1.029-1.509,1.852-1.786.686-.271,1.439.618,2.126.345,4.323-1.714-1.713-3.5-2.881-4.321a25.684,25.684,0,0,1-3.974-3.223c-1.234-1.437-1.852-3.358-3.221-4.729-.413-.41-1.442.137-1.788-.345-2.742-3.358-4.659-7.336-7.265-10.832-1.369-1.92-3.155-3.564-4.663-5.417a202.4,202.4,0,0,1-12.276-16.182c-.273-.412-.89-1.511-1.644-2.879l.755-.415,1.645.965c1.577,2.4,3.291,4.728,5.007,6.993,2.605,3.428,5.761,6.306,8.3,9.733,6.582,8.71,11.793,20.092,22.01,25.234,6.651,3.294,8.435-.135,14.464-2.536,1.031-.41,2.474.136,3.226-.686,2.264-2.4,6.516-16.664,10.493-15.907,2.879.615-.892,5.073-.414,6.17,1.238,2.606,8.16,4.869,10.834,4.66,4.319-.34,4.525-6.992,6.51-9.734.483-.682,1.716,0,2.539-.344,1.165-.618,1.851-2.26,3.22-2.537,3.159-.618,6.515.411,9.742,0,.82-.07,1.3-1.644,2.123-1.441,1.989.484,3.221,2.539,5.076,3.225,1.369.548,3.905-.89,5.761-.345,1.23.345,2.053,1.649,3.291,1.785,1.3.206,2.6-.959,3.906-.686.755.137.962,1.232,1.439,1.782,1.1,1.234,2.4,2.056,2.813,3.088l-.345,1.916a6.473,6.473,0,0,1-.959,1.167c-3.085,2.745-8.774-2.331-10.49,1.441-.548,1.094,2.4,2.126,1.788,3.22-.69,1.373-3.3.277-4.325,1.442-1.374,1.575.823,4.52.752,6.1-.066,1.375-1.1,2.608-1.1,3.977a19.329,19.329,0,0,0,1.1,6.859c.414,1.231,2.883,1.643,2.539,2.876a11.033,11.033,0,0,1-5.075,6.173c-1.5.824-3.426-.894-5.073-.414-1.779.551-2.809,2.812-4.661,3.293-1.785.407-3.633-.548-5.415-.754-1.716-.138-9.4-1.029-10.837-.343-1.5.755-2.057,2.878-3.563,3.631-1.784.757-3.976.14-5.831.689-1.23.409-2.189,2.945-3.225,2.2-1.71-1.305-.818-4.458-2.119-6.172-2.88-3.7-14.4-6.719-18.788-5.759-2.607.617-12.823,7.2-11.177,10.491.479.891,2.671.756,2.538,1.78s-2.127.41-2.881,1.1c-2.265,2.057.074,3.975-.411,4.664-1.507,2.261-4.732-4.938-8.638-.689-.827.894-.344,2.539-1.1,3.567-1.437,2.194-5.688,2.538-6.443,3.977-.892,1.714.206,3.911-.411,5.761-.893,2.809-3.084,6.172-6.445,4.32-.824-.412-.409-1.922-1.1-2.47a19.437,19.437,0,0,0-6.1-1.85c-1.852.343-3.36,1.644-5.075,2.193-1.3.41-2.676.343-3.977.688-1.1.34-2.128,1.027-3.22,1.439a39.876,39.876,0,0,0-4.323,1.439c-1.507.753-2.466,2.263-3.977,2.877-5.346,2.4-11.242,2.47-15.908,6.859-.959.957-.068,2.671-.34,3.974-.894,3.975-3.224,5.349-4.665,8.709-.686,1.507.276,3.974-1.1,5.006-1.3.959-3.151-1.1-4.663-.685-.274,0,.2,3.908-1.441,5-1.713,1.1-4.045.482-5.826,1.441-.48.344.34,1.3,0,1.851a9.865,9.865,0,0,1-3.566,3.565c-.893.48-2.124-.888-2.881-.343-1.027.684-.343,2.88-1.436,3.221-1.239.414-2.06-2.055-3.294-1.782-.957.274-.069,2.536-1.029,2.883-2.058.753-4.387-.278-6.513,0-1.99.2-3.839,1.161-5.758,1.438-6.653.891-12.276-1.234-15.5-7.2-.476-.894.138-2.4-.755-2.877-2.878-1.508-6.58.755-8.641,0-1.1-.411-1.642-1.781-2.537-2.538-.889-.685-2.26-.891-2.878-1.787-1.03-1.5-2.2-3.289-1.782-5.071.136-.959,1.512,1.576,2.468,1.441.618-.068-.343-1.371,0-1.781,1.376-1.506,4.526-1.646,6.172-2.883,4.663-3.7-.209-10.418.342-14.809a15.449,15.449,0,0,1,2.536-6.1c.687-1.1,2.675-1.3,2.882-2.539a40.037,40.037,0,0,0-.345-13.715,25.146,25.146,0,0,0-15.494-18.032,8.7,8.7,0,0,0-5.416.341c-1.444.484-2.2,2.335-3.635,2.54-1.715.274-9.052-3.7-10.49-4.665-4.526-3.22-6.516-8.431-11.177-11.927-1.437-1.1-2.539-2.95-4.32-3.224-3.774-.616-11.793-.341-15.152,2.125-1.44,1.165-2.128,3.429-3.912,3.978-2.33.755-10.282-2.879-11.929-4.32-.547-.481.964-1.441.685-2.2-.274-1.1-2.6-1.778-2.123-2.874,2.675-5.971,10.42-8.781,15.492-12.211,1.924-1.3,3.156-4.041,5.421-4.385,1.235-.137.617,3.016,1.781,3.289s2.537-1.025,2.88-2.193c.478-1.372-1.574-3.155-.686-4.322,2.471-3.427,6.173-5.962,9.737-8.3,3.427-2.264,8.433-2.264,11.176-5.416,2.2-2.469.411-6.921,2.128-9.738.615-.888,1.1,7.063,5.071,6.516,3.427-.479,6.584-2.33,9.4-4.319,1.712-1.233,2.26-3.767,3.977-5.073a7.123,7.123,0,0,1,4.317-1.1c1.236,0,2.4,1.369,3.566,1.1,1.367-.277,2.607-4.322,5.073-4.666,1.714-.272,3.495,2.2,5.073,1.444,1.167-.553-.274-2.814.343-3.98.344-.617,6.447-3.086,5.073-3.973-2.125-1.374-5.073-.69-7.607-.69-.891,0-2.334,1.577-2.536.69-.755-4.048.751-8.164.41-12.275a17.218,17.218,0,0,0-1.919-5.283l.068-1.92Z" transform="translate(-45.716 -40.08)" fill="#e3e3e3" stroke="#404040" stroke-miterlimit="10" stroke-width="0.25" fill-rule="evenodd"/>
    <path id="path64" d="M1252.009,772.087a12.611,12.611,0,0,0-1.578,2.193c-.822,1.437-.619,3.357-1.44,4.732a11.633,11.633,0,0,1-3.979,3.974c-1.648.757-3.909-.34-5.418.686a17.831,17.831,0,0,0-1.714,1.373,15.754,15.754,0,0,0-2.467,3.152,15.093,15.093,0,0,0-1.234,2.33c-.2.48.481.962,1.234,1.1a2.332,2.332,0,0,0,.962,0,6.486,6.486,0,0,0,1.505-.828c1.442-1.028,2.675-2.468,4.251-3.156,1.919-.887,4.6,0,6.1-1.438,2.2-2.123,2.678-5.551,3.978-8.3.822-1.647,1.576-3.358,2.4-5.076l-2.6-.749Z" transform="translate(-57.109 -39.487)" fill="#e3e3e3" stroke="#404040" stroke-miterlimit="10" stroke-width="0.25" fill-rule="evenodd"/>
    <path id="path66" d="M1225.115,759.783l-1.992-5.758,2.4-1.1-2.472-6.448-1.505-4.18h-.962l-3.359-.134-3.088-2.539-3.422,1.093-.417-.957-.683-1.442.683-.408v-2.469l-.48-1.237-6.72,2.539-1.029-3.085-2.331.206-1.1-4.183,2.33-1.1-.891-5.211-3.294.346-.682-1.238-3.086.547-.549-3.289,8.163-3.77-.9-7.2,3.77-.891-.41-3.977-4.112.552-1.1-5.625h-2.326l-.687-1.44-1.853.2-.345-1.438-3.221-.549-.963-3.771-2.328.343-1.987-8.639h-2.47l-1.852-7.749-.893-3.976,1.784-.551.2-2.331-1.782-.754.688-5.76-3.429.893-1.442,3.427-3.012.551-1.99-.551-2.952.894-1.026-4.664-1.988-1.442-1.3-2.536.958-4.115-1.645-7.743-7.954,2.665-7,3.092-6.167-3.638-1.989-2.536-17.282,3.977-1.988-2.535-1.642.407-.347,1.031-1.438-.345-1.646-2.536,2.537-4.319-.891-3.433-6.51.417-.554,1.919.554,5.075-6.1.546-3.979.754-.754,4.457-2.123.892L1095.317,652l1.987-1.305-1.437-2.332-1.649-1.781h-3.085l.752-3.427-1.44-.55-3.977.55-3.634-.755-.48.478-.205.826.551,2.879,2.33-.2-.2,5.757,1.3,5.419-3.841.89-.892-6.65-3.02.546-.544,4.87.544,3.975,5.213-.548,2.54,6.1-3.635,1.3,1.442,4.871,6.17,2.33-1.3,1.644-.687,1.92-1.44.2-1.644-.891-1.99.207L1081.395,681l-5.966-.551-4.319,8.162,12.276,7.335-3.226,4.182-4.732-1.438v3.975l2.538.685-.341,1.3h-4.117l-.752,2.467-5.213.547v3.089h4.322l2.539-1.235.134,2.674-7.747,1.235-1.578,1.851-2.54.546-.545-1.3h-2.881l-.2,1.441-2.127.2-.549-3.424-6.308.2-1.3-2.535-2.672.343-.208,4.321-3.975.751-1.236-1.849-6.1.891.137,2.4-2.535.141-.55-2.88-4.662.343-.548,2.537-2.33.754-.208,2.676-3.224,1.3-.341,1.989-3.976.482-.2-1.027-4.458,1.235v1.439l1.779.341.553,2.741-5.759,1.578a11.3,11.3,0,0,0,4.453,6.379c1.441,1.026,3.77.2,5.074,1.438,1.166,1.1,0,3.908,1.44,4.661,3.429,1.717,7.063-8.222,11.932-1.434,1.578,2.261-1.3,4.66-1.1,6.852.069,1.167,3.224,2.329,2.129,2.882-1.783.956-4.049-.482-6.1-.755-3.363-.411-6.72-1.162-10.081-1.441-1.575-.067-3.154.689-4.728.415-3.3-.617-6.379-2.2-9.739-2.882-.685-.2-1.441.412-2.124.342h-.069l-.142.139L997.54,751.7c.132.409,3.086,1.916,5.827,2.538,2.194.477,4.591-.963,6.789-.344,1.026.206,5.553,5.21,5.074,6.1a12.6,12.6,0,0,1-6.857,5.418c-2.743.961-5.827-.685-8.642,0-2.4.549-5.073,1.576-6.513,3.566a1.624,1.624,0,0,0-.137.547v.275a3.3,3.3,0,0,0,1.99,2.468c1.1.411,2.054-1.437,3.225-1.437,1.1,0,1.92,1.915,2.876,1.437,1.1-.619-.135-3.7,1.1-3.633,2.677.272,4.388,3.22,6.857,4.317,1.511.684,5.9-.206,6.443.416,1.1,1.024.687,3.016,1.442,4.317,1.167,1.989,5.144,3.153,7.265,3.225.9.065,1.788-1.649,2.47-1.1,2.332,1.782-.754,5.894-.342,6.172,3.632,1.784,8.021,1.711,11.931,2.879,3.633,1.1,6.991,3.5,10.831,3.975.892.07.276-2.123,1.028-2.535,2.2-1.234,4.8-1.644,7.271-2.2,1.371-.269,2.948.207,4.319-.339.959-.415,1.029-2.6,2.126-2.538,1.234.134,2.4.616,3.631.754,3.019.342,11.932,1.438,14.057,0,1.509-1.03-.614-4.183.686-5.419,1.509-1.369,5.208,8.985,10.491,1.439.826-1.23.069-3.016.687-4.317.548-.961,1.852-2.608,2.538-1.853,2.052,2.4-2.055,5.554-2.129,7.271-.069,1.027.345,2.672,1.443,2.879.958.206,1.166-1.92,2.122-2.193.411-.14,4.322,1.028,4.322,1.44.138,1.3-1.784,2.4-1.44,3.633.272.822,1.852.822,2.534.343.891-.546.481-2.468,1.442-2.88a4.2,4.2,0,0,1,4.321.342c.684.618-1.718,5.626,2.194,7.2.89.411.89-2.262,1.782-2.127,1.436.2,1.918,3.363,3.291,2.884,1.232-.482-1.855-5.624.684-6.174,1.442-.274,3.7,2.469,4.321,1.1,1.028-1.99-3.84-6.035-2.127-7.546,1.508-1.371,2.95-.478,4.183,1.1l1.029-.959,1.1-.892-2.334-7,3.567-1.439,3.086,2.538,14.6.343,3.766,3.427,5.762,3.772,11.037,5.075,13.306.687,5.413,9.049,4.187-.207,4.11-3.223,1.167-.342a.944.944,0,0,1-.07-.754c.687-3.426,3.225-6.308,3.979-9.733.409-1.923-1.094-3.911-.755-5.763,1.714-9.049,8.5.618,11.176-1.1,1.715-1.1,1.305-5.622,3.222-6.857h.069c3.016-1.785,6.928-1.646,10.08-3.222l.136-.067a15.382,15.382,0,0,0,2.467-1.649,12.414,12.414,0,0,0,3.772-4.867l-1.708-.138Z" transform="translate(-42.282 -31.299)" fill="#e3e3e3" stroke="#404040" stroke-miterlimit="10" stroke-width="0.25" fill-rule="evenodd"/>
    <path id="path68" d="M1232.488,819.646c-2.129-3.835-3.423-8.158-5.074-12.205a98.549,98.549,0,0,1-3.565-9.8.25.25,0,0,1-.068-.2c-.682-2.881.621-6.583-1.37-8.78-1.233-1.367-.546,4.257-2.2,5.079-1.167.552-1.71-2.128-2.88-2.54-.271-.136-5.069.344-5.069.344-.14.549,1.3,5.691,1.852,6.1.545.55,1.573-.068,2.117.414.829.687.415,2.876,1.443,2.876,1.3,0,1.577-3.768,2.538-2.876a15.408,15.408,0,0,1,3.565,5,34.374,34.374,0,0,1,1.853,5.073c.2.619-.959-.409-1.853-.957-.479-.275-.891-.482-1.027-.136-.41,1.093.478,2.19,1.027,3.288a3.8,3.8,0,0,1,.417,1.441,7.368,7.368,0,0,1-.417,1.989c-.55,1.51-1.37,2.948-1.027,4.457a1.534,1.534,0,0,0,1.027,1.028,3.029,3.029,0,0,0,2.194.068c1.026-.412.412-2.81,1.439-2.879,1.307-.137,4.528,5.349,6.652,8.984V822.32a25.06,25.06,0,0,1-1.578-2.675Z" transform="translate(-55.763 -40.493)" fill="#e3e3e3" stroke="#404040" stroke-miterlimit="10" stroke-width="0.25" fill-rule="evenodd"/>
    <path id="path70" d="M1242.875,762v2.95l.07-.068V764.4c.07-.065.07-.206.07-.34v-.484a11.05,11.05,0,0,0-.141-1.576Z" transform="translate(-57.647 -38.867)" fill="#e3e3e3" stroke="#404040" stroke-miterlimit="10" stroke-width="0.25" fill-rule="evenodd"/>
    <path id="polygon72" d="M1242.875,765.29v0Z" transform="translate(-57.647 -39.069)" fill="#e3e3e3" stroke="#404040" stroke-miterlimit="10" stroke-width="0.25" fill-rule="evenodd"/>
    <path id="path74" d="M1255.66,773.462c.07-.069.07-.137.137-.2C1255.73,773.325,1255.73,773.392,1255.66,773.462Z" transform="translate(-58.433 -39.559)" fill="#e3e3e3" stroke="#404040" stroke-miterlimit="10" stroke-width="0.25" fill-rule="evenodd"/>
    <path id="path76" d="M1255.806,773.091c.07-.068.07-.135.14-.206C1255.876,772.956,1255.876,773.024,1255.806,773.091Z" transform="translate(-58.442 -39.536)" fill="#e3e3e3" stroke="#404040" stroke-miterlimit="10" stroke-width="0.25" fill-rule="evenodd"/>
    <path id="path78" d="M1373.6,645.8l2.4-1.092-.2-3.976,1.647-6.793h-2.194l-.343-1.846h-1.988l-1.1,2.741-9.187-8.16-1.44,1.441L1355.564,624l-2.672,3.22-4.868-6.65-3.775,2.537-4.178-5.622,4.178-1.234-.888-2.2-6.377.208v-2.2l1.989-.55v-2.124l-3.018-.206-.75-4.871-5.212.345-.206-2.127,2.328-1.782-.683-1.852-3.089.891-3.561.548v1.1h-5.625l-.684-1.234-5.832.34.552,2.677h-3.429l-.688-3.908-6.51.892-.891,1.437-7.2.137v-3.016l1.58-.546v1.439l1.641-.2.343-5.007-3.905-4.525-.412-3.294H1290.7l-.55-1.919,3.222-1.85-1.78-2.124-2.739,1.782-3.571.342.344-2.124-.344-2.744-9.734,3.637-2.2-3.087-3.423.755-2.882-5.42-5.414,3.977-5.967,4.663-.685-1.44-2.331-1.1-3.431-1.787-7.953-1.1-2.674.071h-.754l-10.837.272-2.535,3.977-5.416.892-5.007.754-.548-5.417-1.439.206-.549-1.3h-1.988l1.781,9.189-1.028.2.139,3.634,2.741.482.342,3.974,2.538-.344.139,4.321-3.568-.687-.754,2.128-2.536.2.959,5.758,3.017-1.436,3.084.2.207,2.127.141,1.439-1.99,2.74.96,4.117,3.909-.206-.135,7.816-2.2.48.548,2.949,1.441,2.332-2.33,2.537.548,2.33,1.99,1.989-3.432,3.223-15.7-2.674-8.3-.417-4.661,3.639-5.415,2.126-7.612,2.194-1.1.893,1.51,7.059-.959,4.115,1.3,2.537,1.988,1.441,1.025,4.664,2.953-.894,1.99.551,3.012-.551,1.441-3.426,3.429-.893-.689,5.76,1.783.755-.2,2.33-1.784.552.893,3.975,1.852,7.75h2.47l1.987,8.638,2.328-.343.962,3.77,3.222.549.344,1.438,1.854-.2.687,1.44h2.326l1.1,5.625,4.113-.552.41,3.977-3.77.892.9,7.2-8.163,3.771.549,3.288,3.086-.546.682,1.237,3.294-.346.891,5.211-2.33,1.1,1.1,4.183,2.331-.206,1.029,3.085,6.72-2.538,1.233,3.225-1.437.89,1.1,2.4,3.423-1.092,3.088,2.538,4.321.134,3.978,10.628-2.4,1.1,1.991,5.759,1.64.139h.067a.218.218,0,0,1,.068-.139,5.02,5.02,0,0,1,.279-.753v-.137a.067.067,0,0,0,.069-.069v-.138s0-.069.065-.069v-.206l.07-.068v-.2a.746.746,0,0,0,.069-.345c0-.07.068-.07.068-.135V750.43c-.207-.892-.482-1.784-.754-2.673a8.555,8.555,0,0,1-.551-3.7c0-.068.207.55.551,1.577.206.617.481,1.443.754,2.2.683,1.849,1.439,3.7,1.917,3.495a7.8,7.8,0,0,0,3.978-4.733c1.1-3.427-2.945-5.758-3.222-8.3-.14-1.3.137-3.775,1.441-3.565,1.711.274,1.781,2.949,2.878,4.317.961,1.1,2.948,1.443,3.225,2.883.342,1.438-1.715,2.534-1.786,3.978a5.724,5.724,0,0,0,1.442,3.976c.752.82,2.742,0,3.29,1.028.822,1.712.345,3.358-.548,5.005a19.248,19.248,0,0,1-2.946,3.979l2.6.749c1.1-2.4,2.263-4.867,3.495-7.2.069-.066.069-.133.138-.2s.067-.207.136-.275c.07-.139.136-.274.207-.412.067-.066.067-.135.138-.2,1.713-3.02,6.1-7.266,6.1-10.765,0-1.852-4.39,4.113-4.665,3.906-1.509-1.03-1.3-3.428-2.2-5-.888-1.78-2.4-3.227-3.217-5.072a20.1,20.1,0,0,1-1.443-5.761c-.206-1.647.274-3.357,0-5.076-.206-1.5-1.645-2.808-1.438-4.319.274-2.126,1.093-4.592,2.881-5.759,1.026-.686-.208,2.536.341,3.633.411.757,1.85.618,2.194,1.443.344.889-.827,1.987-.344,2.88,1.714,3.562,1.167,7.95,3.223,11.515,8.366,14.4,17.9-4.8,24.89-9.736,1.643-1.161,3.77-1.646,5.416-2.879,1.1-.823,1.374-2.535,2.538-3.224,3.221-2.055,9.19-2.6,12.958-2.878,1.647-.137,3.361.137,5.077,0,1.646-.206,6.925-2.328,7.885,0,.612,1.441-.208,3.221.34,4.661,1.645,4.252,5.9-4.661,6.514-5.757,1.234-1.992,1.577-4.595,3.291-6.172,1.37-1.234,3.634-1.029,5.348-1.783,6.926-2.812,10.9-7.747,18.787-3.565,4.663,2.4,5.212,5.417,2.876,10.082-.406.751-2.327,1.162-1.777,1.779.754.962,2.879,1.3,3.564.344,1.577-2.059,1.1-5.075,1.851-7.543,1.3-4.453,2.4-8.435,6.445-11.177a50.912,50.912,0,0,1,6.447-3.7l.067-.07c.139-.07.205-.134.341-.134l.346-1.169-2.884-3.768,1.994-4.526,4.524.89,2.329-2.33-2.877-2.329,1.781-3.222-3.564-2.4-2.193,1.985-3.566-4.317-2.538-3.019-3.772-2.538-4.319-2.879,6.1-1.987-2.677-3.293-2.538-6.1.9-1.1,1.779,1.438,3.431-1.093,1.1,2.191,7.743-4.112-.34-5.964,2.129-.413,1.438,3.63Z" transform="translate(-53.364 -27.295)" fill="#e3e3e3" stroke="#404040" stroke-miterlimit="10" stroke-width="0.25" fill-rule="evenodd"/>
    <path id="polygon80" d="M1242.071,768v0Z" transform="translate(-57.597 -39.236)" fill="#e3e3e3" stroke="#404040" stroke-miterlimit="10" stroke-width="0.25" fill-rule="evenodd"/>
    <path id="path82" d="M1342.713,512.845v-1.782h-1.029l-.411-3.29s1.44-1.1,1.647-1.235c.206-.207-2.2-4.183-2.2-4.183l-1.783-1.44-.549-3.016,2.332-2.539,1.648.55,1.441-1.1,1.987,2.675,2.534-.138.553-3.084,4.524-.343,1.578,1.439,1.1-1.439,4.661,5.418,1.3-1.441-3.632-3.977,1.986-2.878,2.878,1.233,1.1-5.075,2.333.206v3.087l4.179,1.234v-5.554l2.123-3.977,2.747-.549.891-1.1,4.661.754.343-1.439L1377,476.574v-1.782l2.193.206,1.786-2.539,2.881.343.34-4.866,4.867-2.674-.891-3.292.343-1.578,4.869-.96,3.083-2.468-7.061-3.291,1.991-4.458,1.092-1.644,4.529-.2.342-1.1,10.078,2.194,3.637.342,1.44-3.222,2.742,1.1,1.231,2.332-1.1,2.879,7.2,3.43,2.2-3.088,2.878.206-2.194,7.747,3.636,5.077-3.427,1.028-.551,2.88h-1.237v1.852l2.677.547-2.677,2.125.9,2.2,2.878-1.1,3.632-1.646,2.879-.686,3.775-2.194.547,4.184,1.233,4.868,2.54.136.547,2.881,3.77.41-.343,1.991-2.329.343.344,2.535-1.78,2.128,2.127,1.988,2.531-.549.755,4.319-1.44,2.2-1.99.343-2.4,2.33.754,1.44,2.2.413,1.026,8.433,4.731,3.291.345,6.1.891,2.538,4.318-1.645,1.781.758-.134,4.521,4.318.687.891,2.331-2.329,1.647-.206,4.865,3.975,1.443,5.078,1.235s3.425,5.961,4.525,6.167a11.269,11.269,0,0,1,3.015,1.441l5.621,1.44,6.1,2.126-.891,4.388,2.535,1.579-.34,3.7,6.852-.684,6.792-.206-.142,5.622h4.526l-1.645,5.76,1.784,3.223h-2.674l-12.48,1.988-5.209,13.374.891,4.315-3.976.208-2.674,2.126-1.1,3.771-9.737,1.848-2.126,2.54-4.389-1.3-2.469,4.317-2.192,2.332-1.646,3.427v4.733l1.851.682.55,9.4-5.829,4.662v2.881h10.7l-7.4,8.845v9.185l-.753,2.2c-.827,1.236-4.733,7.544-7.407,8.09-.957.275,1.029-1.852,1.1-2.88.344-6.513-4.321-3.909-8.3-3.222-3.153.548-6.377-.207-9.394.344-1.505.273-2.811,1.366-4.322,1.849a43.652,43.652,0,0,1-6.857,1.783c-2.6.343-6.235-1.643-8.637-.755-1.579.617-2.538,2.335-3.564,3.636a78.6,78.6,0,0,0-6.515,8.641c-2.4,3.7-3.289,8.5-6.514,11.516-1.234,1.167.071-3.361-.342-5-1.646-6.651-9.737,1.372-12.272,2.88-.348.2-4.527,2.4-4.527,2.4l-.549-.619-2.884-3.769,1.994-4.525,4.524.889,2.33-2.329-2.878-2.33,1.781-3.221-3.563-2.4-2.194,1.985-3.566-4.316-2.538-3.02-3.772-2.537-4.319-2.879,6.1-1.987-2.677-3.293-2.538-6.1.9-1.1,1.779,1.439,3.431-1.093,1.1,2.19,7.744-4.112-.341-5.964,2.13-.412,1.438,3.629,2.4-1.092-.205-3.976,1.648-6.793h-2.2l-.342-1.846h-1.988l-1.1,2.741-9.186-8.16-1.44,1.441-5.625-4.112-2.672,3.22-4.868-6.65-3.776,2.537-4.178-5.622,4.178-1.234-.888-2.2-6.376.209v-2.2l1.989-.55V601.5L1346,601.3l-.749-4.871-5.212.345-.206-2.127,2.328-1.782-.683-1.852-3.089.891-.546.14v-3.7l-1.233-.552.342-2.534h1.987l.205-1.1,2.335-.549-.894-4.661-1.851.548-.681-2.677v-3.631l-.21-3.087,3.839-4.525,4.869,2.4,1.781,1.442h4.869l1.241,1.026.407-2.879,2.672-1.436v-4.458l-1.23-5.006,3.014-2.674-1.029-5.417-1.094-4.525-9.192-.343-.958-3.428h3.638l-.688-7.956-.412-5.21,2.192-.409-.549-3.429,3.976-.481-.748-5.073-6.311-.344-1.233-2.539-2.746.345-1.439-2.33Z" transform="translate(-63.412 -19.404)" fill="#e3e3e3" stroke="#404040" stroke-miterlimit="10" stroke-width="0.25" fill-rule="evenodd"/>
    <path id="path84" d="M1421.167,371.17l2.676,4.114,1.851,1.989-4.32.55-.754,2.538,4.183,2.191-3.841,3.773-3.768.344,1.1,2.879,2.673.343.89,3.84,1.308,2.125-.208,1.987-2.331.893-1.783,7.611-3.631-.206-.549,2.193,2.877.343-4.663,2.674-.206,8.5,1.645.344v2.878l2.2,1.852-.208,5.553,1.783,1.3,3.427.344-.137,1.985-3.084.345.548,2.194-1.987,1.989-.208,1.577.069.684.482-1.028,2.742,1.1,1.232,2.332-1.1,2.879,7.2,3.43,2.2-3.088,2.878.206-2.194,7.747,3.635,5.077-3.427,1.028-.551,2.88h-1.236v1.852l2.677.547-2.677,2.125.895,2.2,2.878-1.1,3.632-1.646,2.879-.686,3.775-2.194.548,4.184,1.233,4.868,2.539.136.547,2.881,3.77.41-.343,1.991-2.328.343.343,2.535-1.781,2.128,2.127,1.988,2.531-.548.756,4.318-1.44,2.2-1.99.343-2.4,2.33.754,1.44,2.2.413,1.026,8.433,4.731,3.291.345,6.1.892,2.537,4.318-1.645,1.78.758-.134,4.522,4.318.686.892,2.331-2.33,1.647-.207,4.865,3.976,1.443,5.078,1.235s3.424,5.961,4.524,6.167a11.267,11.267,0,0,1,3.015,1.441l5.622,1.44,6.1,2.126-.89,4.389,2.536,1.579-.341,3.7,6.852-.684,6.792-.207-.142,5.623h4.527l-1.646,5.76,1.785,3.223h-.478l1.024.549,4.53,2.54,1.437-1.788,8.5-1.988,3.014-2.33,3.085.687.894,4.662,2.741.2,1.782-2.879h5.418l4.116-1.232,6.509,1.232.689-1.782,3.838-.892-.961-8.159,2.2-5.894-1.238-4.325,2.674-4.456,1.646-3.974.891-5.761.888-6.512,4.187-3.636-.41-5.21-9.531,1.44-.55-1.779,7.406-5.076-3.429-1.989-7.406-7.2v-6.65l-3.427-5.281-9.734-.138,1.1-5.962v-6.858l.891-5.554,4.662-5.28,9.394,1.1,2.33.755,3.083-7.062v-4.662l-2.191-.2-2.675,3.635-6.652-1.99-4.731.549-3.018-4.526-6.17-5.073.207-3.428,4.322-1.58,2.2-2.4,7.537-2.332.889-3.976,7.961-10.285,2.878-4.113,4.664-1.645v-2.33l-5.01-1.647.14-4.114-10.833-8.639.2-8.846L1563.1,389l-.547-3.224-12.07.206-3.632,5.761-7.955.89-4.114-3.084-8.848-2.879-1.645-4.871.208-4.524-12.069-1.577-5.414,2.879-7.957-4.319-2.535-7.955-3.425.342-1.582,5.76-5.417.548-4.866,3.773-2.329-1.578-1.644-5.967-11.728-3.975-.894-6.653L1461,357.8l-.682,3.29-3.978.137-6.17,2.333-3.43-3.36-5.349,1.577-3.635-8.982-9.19,1.234.9,12.069-4.185,1.439-4.115,3.633Z" transform="translate(-68.09 -13.697)" fill="#e3e3e3" stroke="#404040" stroke-miterlimit="10" stroke-width="0.25" fill-rule="evenodd"/>
    <path id="polygon86" d="M998.264,356.384h-1.235l-.752-1.647-2.881-.343-.687,4.661-1.643,2.537,1.093,1.853-2.741,1.441-.55,3.908,3.979.959v2.331l-3.979,1.44-1.026,2.878.894,2.881-.757,2.879-2.328-1.644-2.336-.138-3.085,4.867,1.1,1.99-3.088.136-.341,3.841-7.4.137v-5.418l-3.976.206-1.24,2.538-5.62-1.1-.548-7.405-1.579-3.224-8.3-.345,3.018,4.115-.687,1.646,1.992.891-.55,2.539-4.661,1.783-1.3,2.536-3.088-2.194-1.78,2.538,1.436,1.986-2.537,5.625,1.847,2.125-.4,5.077,1.85,1.028-3.845,5.072-2.331,5.759,1.3,1.1-2.331,2.741-4.865,3.772-3.431,3.429.341,2.878-2.878.55-2.744,1.028.55,5.619-6.653,1.785-1.643,1.3-4.116.894-3.906-3.775-2.333,1.031-2.4-1.238-5.209,5.211-3.222-4.113-2.744.346v1.78l-1.235,1.1.891,1.783-1.987,1.439.341,5.829-1.783.137-.137-1.785-4.527-2.194-7.609-.891.411-4.868-3.429-.891-1.646,2.744.55,2.467-1.783,1.649-1.853-.757-.685-3.015.341-2.331-4.524.134-.344,1.853h-3.222v5.211l-1.99.344-1.643,4.317-1.235,2.2-2.54,1.232-1.777-.548-2.744.754-1.442-1.1-.344-4.317h-.2v-2.194l-1.646.411-1.235,1.232-3.635-1.1-.478-3.976-.2-2.124-4.323-.344-1.439-5.074-2.331-1.3.341-3.359,3.979-.207,1.028-3.633-1.579-3.772,1.1-1.646-2.741-3.77-2.537-5.007,2.741-2.948-2.6-2.951.274-.067-1.439-1.1.137-4.664H827.4l.548-5.964-1.439-3.977,1.439-.892,1.235,1.1,1.3-.2.137-2.331,7.061-2.538-.207-2.537,5.762-2.536.752-1.439,3.565-1.235-4.454-8.5,1.235-1.576-2.674-9.052,2.124-.686.2-1.646-1.3-.754-1.573-2.674,3.974-5.212-2.878-2.537,1.232-2.331-.2-4.32-4.457-.754,2.467-2.673-2.467-2.4-.548-2.47-1.442-1.645-6.307.891-.961-1.1,3.088-1.232-.55-1.3-3.222-.683.685-2.194,4.39.751-.548-4.318-1.442-.412-.958-2.126,2.741-.344v-3.974l-3.77-2.744,2.535-3.976,4.32-3.566,2.674-3.428-1.439-5.965-5.759.892-.207-1.03,1.99-.959-1.579-1.028.481-1.851,2.881.891.548-1.577-2.674-.892,1.783-3.425-3.429-3.637-1.439-4.525h-1.987l-.14-3.427,3.225-.344.548-4.117,3.976-2.739-1.99-3.568-2.535.343-5.759-7.747h-1.1l-.548,3.222-.891.548-1.646-5.62-1.989-8.777,4.183-2.4,1.783,2.537,2.741-4.317.687-5.212-2.537-.208-.344-2.536-.274.07.07-.07,3.085-2.332,5.963,1.439,3.431-6.3,3.085.753,2.674-3.976,6.854-1.1.55,5.075,2.33,1.988h5.072l2.537-2.74,3.018-.139,1.648,1.234,3.426-3.427,9.392-.549,3.565,1.646,4.527,6.445,2.194.411-.411,5.006-1.987,3.292,4.731,2.673,4.661,1.1.344,1.1,4.183,2.88.2,3.428-1.987.136.344,2.882-1.99,3.085,1.646,3.77-1.3,3.292.341,6.1h6.307l1.1,1.987,2.744.549.137,5.213,2.467,5.073,2.744.892.341,5.554-1.78.958-.207,2.127,1.646.205v2.331l5.552.343V300.3l2.333-.548v-1.782l6.718,1.782h6.444l2.744-2.539,1.235.756-.344,3.223,2.537,2.536.55,2.879,1.99-.342.891,3.77-1.447,1.1.69,4.319-3.566.207.344,3.565,5.966.754.548,2.674,3.563.892-.2,2.742L955,323.4l2.674,3.222,1.853-.549,1.785-2.126,3.63-.41,1.028,1.986,1.1-2.123,4.186,1.437.475-3.77,2.2.138,1.442-1.234h.755l3.426.547,1.439-3.838h1.576l.411-2.672,3.912.2.958,4.32,3.906,4.456,6.312-.343.958,1.988-2.4,2.194-.685-1.3-2.537.208.344,5.074,3.633,4.456,3.77-.342-2.878,5.76,1.646.547,3.767-2.123.693,2.468h-.142l-.2,3.977-4.873,3.086,1.372,5.143Z" transform="translate(-31.623 -5.766)" fill="#e3e3e3" stroke="#404040" stroke-miterlimit="10" stroke-width="0.25" fill-rule="evenodd"/>
    <path id="path88" d="M864.064,534.933l1.508-1.78,1.441.138.55,2.877,2.672,1.853L875.1,532.4l3.633,2.743,2.676-.548,1.646-2.744,6.169-1.985.893-4.46h4.459l1.986,2.124,5.623-.685.892-2.742-4.319-3.976,2.674-3.562h2.879l1.439-3.979-1.232-1.646,1.1-2.331,7.475-3.086,6.3,2.88h4.185l3.086-1.03,4.871,1.441s4.658,2.33,6.441,2.126a13.348,13.348,0,0,0,4.524-1.781l3.774-.344,4.318.344,1.992,1.986,2.741-.206L958.2,509.7l-.206-2.19,5.966-2.537.208-2.331,2.673-1.1-.892-8.09,2.537-1.234,1.58,1.234,3.083-1.234,2.192,1.578,3.018.548s2.743-4.663,2.4-2.536c-.41,2.192,3.768-1.579,3.768-1.579l3.019,2.333,3.085,2.673-1.234,2.4,1.99.893,2.671-5.418,6.309.687,3.089-1.234,3.426-.343.206-1.99-1.506-.752v-1.442l5.072-.683,1.781-7.612,3.427-3.426,5.623.2.207,3.977,3.016-.2,1.3-1.991,4.114,3.429-.138,1.783,1.922,3.975h1.437V485.5l1.991.206,1.1,1.233,5.419,1.853.551-1.3-1.237-1.027,2.125-1.442,1.1,3.017,1.231.893.892-1.233,1.511-.343.688-1.1,5.757-.55.344-1.439-1.786-.343.345-7.2-1.578-.548v-2.4l1.233-1.782-3.566-2.538,2.677-5.759-3.632-1.989-4.114-1.44-1.987-3.02-2.678.481-4.866-6.1h-2.2l-.547-5.42,5.624.892,3.425,1.1,2.468-7.407-1.231-9.393-.759-7.886V417.89l-1.579-2.673-5.959-1.3-1.647-3.429.754-1.44-1.1-2.879-3.224-1.233-3.291.343-3.908-6.308,2.673-3.223-.757-1.439,1.1-5.076-3.567.206-1.094-7.749-1.1-1.3-3.636.206-3.017-6.855,2.676-1.991-.342-1.233-7.408-1.646-4.523-5.965-1.506-.754-1.717,2.744h-1.234l-.753-1.647-2.881-.344-.686,4.661-1.642,2.537,1.092,1.853-2.741,1.442-.552,3.908,3.978.959v2.331l-3.978,1.44-1.024,2.879.892,2.88-.756,2.879-2.328-1.643-2.337-.139-3.084,4.867,1.1,1.991-3.089.136-.341,3.84-7.4.137V394.44l-3.978.206-1.238,2.538-5.62-1.1-.549-7.406-1.577-3.224-8.3-.344,3.016,4.115-.687,1.646,1.992.891-.552,2.54-4.661,1.782-1.3,2.536-3.087-2.194-1.78,2.538,1.436,1.986-2.537,5.625,1.848,2.125-.405,5.075,1.851,1.028-3.844,5.073-2.331,5.76,1.3,1.1-2.33,2.742-4.864,3.771-3.432,3.429.343,2.877-2.88.55-2.743,1.029.55,5.622-6.653,1.783-1.643,1.3-4.116.892-3.907-3.773-2.33,1.03-2.4-1.236-5.211,5.211-3.222-4.114-2.744.345v1.781l-1.233,1.1.891,1.782-1.986,1.44.341,5.83-1.784.137-.137-1.785-4.525-2.194-7.61-.891.412-4.867-3.428-.892-1.647,2.744.55,2.466-1.783,1.648-1.851-.756-.687-3.015.343-2.331-4.524.137-.344,1.852h-3.222v5.21l-1.989.344-1.643,4.317-1.237,2.2-2.538,1.233-1.779-.549-2.744.756-1.44-1.1-.343-4.318h-.206v.685l-3.225,1.1v1.99l1.58.754.548,4.663,1.3.547v1.1l-2.881.549-.2,1.782-1.989-.206-.549,2.881-1.988.549.755,4.73h2.876l.209,3.908-3.84,2.194.41,3.223,2.333,1.645,2.329-1.99,1.99.894-.893,3.29,2.674,11.861,6.857.892,1.991,2.536-2.676.344v2.537l5.347,3.291,1.3,5.006,2.126.89.2,1.3-2.538.686-.342,1.99,3.22.546.414,3.227-1.851,3.975,1.577,1.1Z" transform="translate(-32.841 -14.272)" fill="#e3e3e3" stroke="#404040" stroke-miterlimit="10" stroke-width="0.25" fill-rule="evenodd"/>
    <path id="path90" d="M1133.368,490.245l-5.208-4.868-5.279-1.234-2.883-.2-4.321-1.784-1.438,1.234-.689,5.074h-3.29l-.545-2.538-5.553.549v-2.332l-4.321.344v2.877l-7.954-10.283,2.879-1.1-3.225-5.416,2.677-2.675-1.237-1.986-2.537.2-.889-2.192-2.332.891-.754,4.182-7.747-2.88-8.09-.959-1.306-3.016-3.016.684-3.77-1.165.136-.273-3.632-1.989-4.114-1.44-1.987-3.019-2.678.481-4.866-6.1h-2.2l-.547-5.42,5.624.892,3.426,1.1,2.468-7.407-1.231-9.393-.759-7.886v-5.623l-1.579-2.673-5.959-1.3L1043,408.171l.754-1.44-1.1-2.879-3.223-1.233-3.291.343-3.909-6.308,2.673-3.223-.756-1.439,1.1-5.076-3.568.206-1.093-7.749-1.1-1.3-3.636.206-3.017-6.855,2.676-1.991-.342-1.233-7.409-1.645-4.523-5.966-.89-.48-1.443-5.279,4.871-3.086.2-3.976,3.427.2,1.442,1.236,1.988-.344.343-2.127,1.784-.958v-1.783l1.99-.207.207-2.467h1.779l.344,1.234,7.063-.686.341,3.91,3.84,1.851,1.234-1.442,5.077.138.478-1.234,2.193.343s-2.193,3.429,1.443,1.647,5.62-.755,5.62-.755l1.44-2.674,2.674-.755s1.646,2.4,1.784-1.234c.2-3.635.754-3.223.754-3.223l3.566-.549.55-3.838,2.741.958,3.428-6.17,2.536.343.683.96h1.648v-1.3l2.675.207.754,1.781,2.676-.549.888-3.567,2.881,3.02,6.718.41.549,3.428,2.468-2.2,2.2.756,1.439,1.578,3.632-2.333,7,2.676,5.072,2.193,2.332-2.674,2.536-1.645-.34-1.989,2.331-.549h1.78l2.881-2.676,5.62,2.676,1.988-1.439,1.786.753.2,2.127,1.03-.343.892-2.743,7.953-3.222,3.289,1.44.482,9.05,6.72,10.287-.891,2.673,4.315,3.224.9-.344,2.124.206.208,2.537,4.318,1.234.2,2.536-2.738,2.675.754,4.184,2.123,1.44,4.73,1.78,3.772-.342,1.1-.754s1.233-4.662.545-4.662c-.753,0,3.98.893,3.98.893l.48,1.645,6.17-3.292,3.567,1.647.411,3.632-1.3,3.018-1.442,5.073-1.988,4.113.412,1.988,1.438.206.893,3.428,1.989.549,5.555,3.976,2.191-2.193,3.088.206-2.538,2.331v1.439l6.1-.342,5.758,1.578,1.1,10.833,2.537,1.1,2.328,3.635,5.22.685,3.42-.685,4.323,9.53-5.556.892,2.125,3.429,3.979.892-1.235,3.429-8.844-1.235-.891,4.524,2.125.136-.134,6.172,2.126.481-5.006,6.17.548,3.223-2.884,1.3-.2-1.3-3.088.411-12.27-2.536-2.675,8.431,1.439,3.84,1.44.481,1.439,4.181.552,1.1H1204.2l-2.675-3.634-2.329-.206-1.989,3.84-1.442-2.536h-3.224l-1.1.89-1.439-.2-2.539,3.085-2.191.342-1.575,1.648-4.188.2-4.868,7.337-2.88-1.577-2.125.891-3.433-2.538.483,3.635-5,3.427,1.233,3.773-3.221,4.869.344,5.072,3.085,3.908.136,2.4-3.771.549.206,3.224,2.332.135-.547,3.978-5.967-.138-7.748-3.633-1.578-3.223-8.157-5.074-4.663-.891Z" transform="translate(-43.379 -11.958)" fill="#e3e3e3" stroke="#404040" stroke-miterlimit="10" stroke-width="0.25" fill-rule="evenodd"/>
    <path id="path92" d="M1123.754,499.373l-1.032,3.289h-1.985l-.139,7.2-2.192.206-.343-2.332-1.1.136-.687,2.539-5.279-.343v-3.086h-3.566l-1.442,2.331-1.847.207-1.993-1.1.552,4.868,4.524,3.977,2.88-.343,4.731,3.566h1.991s2.466,1.851,0,2.192c-2.539.346-2.4.552-2.4.552l-3.225,3.975-5.966,1.232.342,3.635-3.219.893-.208-2.2-4.113.549-2.539,5.414,1.3,8.5-1.093,1.784,2.127,2.329-.139,1.782-1.1.753-.551,3.637,2.541.688v1.439h-1.1l.2,2.127,2.125.891,1.442,5.414-2.883-1.85-.683,3.841-3.634.342-1.78,3.425-3.088.137-3.563,1.651,1.574,3.082-2.125,3.563-1.989-.683.138-5.074-1.781-.136.343-2.193-2.881.2.343,4.319-2.878.9.2,1.78,3.088-.548.135,1.85-7.334,2.879-4.525,2.538-.893.89-1.645.687-.892-2.126L1061.976,587l-1.1-1.986-4.322,1.783,1.644,5.759-4.182,1.3-1.437-1.989-7.406,1.785v2.192l3.838-.551.892,1.989-6.856,1.441.547,2.127,1.442-.14-.2,2.474-1.442.2.343,2.33-1.231,2.88-4.873,1.99-3.979.546-4.111.9-.755-1.992-6.512,2.537-4.457-4.115-4.184,1.235v2.88l-2.122.548v2.331l-3.639.412-3.425-6.855-5.965-.552-6.994,4.663h-4.323l-.546-1.781,2.126-1.783V607.02l2.194-.547-.341-2.335-1.645-3.975-.892-3.975-5.28.343-2.879-6.514,3.425-4.319-1.782-3.773-4.32,1.987-1.439-2.876-2.2.547v-1.439l-3.564.892.548,1.985-3.291-.752.2,2.538-4.52-.342,1.093-1.649V579.8l-5.211.478-.206-4.317-1.99,2.74-4.66.893-1.1-2.193-2.192,1.1-2.47-2.882-3.289-1.441-.69-4.32-8.158-.345-.135-2.534-5.76.892.138,3.769h-2.88l-.894.755-3.22.14-.755-1.237-3.427.343.344,1.851h-2.127l-.547-2.4h-2.88l-.753-1.781-5.831,1.644v2.677l-2.879.546-3.427-1.988-1.44,1.642-3.086-1.989-3.427,1.1-1.785-1.442h-2.193l-1.439,1.988-2.468.62c.065-.279-.551-.071-.48-.137h-6.789l-5.76.409-2.877-1.989-5.76-5.967-1.852,1.237-1.1-1.237-2.127,1.991.343,1.783-2.536.206-1.782-3.979-4.113-.2-.343-.068-.206,2.052.549-5-2.742-3.841,5.622-8.02L853.6,549.7l-.2-1.99,3.291-1.918,2.879.481,4.869-4.457-1.851-1.3,1.577,1.094,1.508-1.779,1.441.137.549,2.878,2.672,1.852,4.87-5.623,3.632,2.743,2.676-.548,1.646-2.743,6.17-1.986.892-4.46h4.459l1.987,2.124,5.622-.685.891-2.742-4.318-3.976,2.674-3.563h2.878l1.44-3.979-1.233-1.646,1.1-2.331,7.474-3.086,6.3,2.88h4.186l3.085-1.029,4.871,1.442s4.658,2.33,6.442,2.125a13.327,13.327,0,0,0,4.524-1.781l3.773-.344,4.318.344,1.992,1.987,2.741-.206,2.878-1.238-.207-2.19,5.966-2.538.208-2.331,2.673-1.1-.892-8.09,2.537-1.235,1.58,1.235,3.082-1.235,2.193,1.578,3.018.548s2.743-4.663,2.4-2.536c-.409,2.192,3.769-1.579,3.769-1.579l3.018,2.332,3.086,2.674-1.234,2.4,1.99.892,2.671-5.417,6.309.686,3.088-1.234,3.426-.344.207-1.989-1.507-.753v-1.442l5.073-.683,1.781-7.612,3.427-3.426,5.623.2.207,3.977,3.015-.206,1.3-1.99,4.113,3.428-.138,1.784,1.922,3.975h1.437v-1.987l1.991.206,1.094,1.233,5.419,1.852.552-1.3-1.237-1.028,2.124-1.442,1.1,3.017,1.231.892.891-1.232,1.51-.343.688-1.1,5.758-.549.343-1.44-1.786-.344.345-7.2-1.578-.548v-2.4l1.233-1.782-3.567-2.538,2.542-5.485,3.769,1.165,3.017-.685,1.306,3.017,8.089.959,7.747,2.88.755-4.183,2.332-.891.888,2.193,2.538-.2,1.237,1.986-2.677,2.675,3.225,5.417-2.88,1.1,7.955,10.282v-2.877l4.32-.343v2.331l5.553-.549.545,2.538h3.291l.689-5.073,1.437-1.234,4.321,1.783,2.883.2,5.28,1.235,5.208,4.867.824.139ZM841.537,569.1h0l-.344.343Z" transform="translate(-32.94 -20.946)" fill="#e3e3e3" stroke="#404040" stroke-miterlimit="10" stroke-width="0.25" fill-rule="evenodd"/>
    <path id="path94" d="M1327.291,514.687l-2.539.274-.546-1.441-2.54.55v3.223l-3.221.413-7.408-6.172-5.622,7.4-.891,2.674.754,2.538-2.33.89-2.4-1.781-1.575,1.99-1.1-1.442,1.232-3.086-3.566-4.112,1.443-2.742-4.735-4.458-3.769-2.193.756-1.989-2.194-2.2.755-2.466-1.991-1.853-4.525-.547.343-2.331-2.332-.55.343-2.467-1.437-1.1.889-2.743-2.467-2.33-2.4-1.1,1.854-3.773-3.3-2.674-2.466,3.428-1.989,1.029-1.306,1.851-1.981.55-1.578,1.577-3.292-1.441-4.866.549-1.1-2.332-2.676,1.236-1.436-1.784-8.5.341-3.563-3.013-3.774-.549-3.084-3.772-2.193-.207-.343-1.986-3.432-2.331-1.779,1.439-1.645-1.439,1.783-1.989-3.912-2.881-6.854.139-1.849,1.37.2.48H1208.4l-2.675-3.634-2.328-.206-1.989,3.839-1.442-2.536h-3.225l-1.1.89-1.439-.2-2.538,3.084-2.19.342-1.576,1.648-4.188.2-4.868,7.337-2.88-1.577-2.124.892-3.433-2.539.483,3.636-5,3.427,1.233,3.772-3.221,4.869.344,5.072,3.085,3.908.136,2.4-3.772.548.206,3.224,2.332.135-.547,3.978-5.968-.137-7.747-3.634-1.578-3.223-8.157-5.073-4.663-.892.823.139-1.031,3.289h-1.985l-.139,7.2-2.192.206-.343-2.331-1.1.135-.687,2.539-5.279-.343v-3.086h-3.566L1120.63,509l-1.847.206-1.993-1.1.552,4.868,4.524,3.977,2.88-.343,4.73,3.566h1.99s2.467,1.851,0,2.192c-2.538.346-2.4.552-2.4.552l-3.226,3.976-5.965,1.232.341,3.634-3.219.893-.208-2.2-4.112.549-2.538,5.415,1.3,8.5-1.093,1.784,2.126,2.329-.139,1.783-1.1.753-.55,3.636,2.54.688v1.439h-1.1l.206,2.127,2.125.891,1.442,5.414-2.883-1.851-.683,3.842-3.635.341-1.779,3.427-3.089.136-3.563,1.651,1.575,3.082-2.125,3.563-1.989-.683.138-5.073-1.781-.136.343-2.194-2.882.206.344,4.318-2.878.9.2,1.781,3.087-.549.136,1.851-7.334,2.879-4.526,2.537-.892.891-1.646.686,2.2-.889-.206,2.534L1079.7,591l.683,2.877-1.236,1.1,3.429,4.32,3.429-1.1v3.98l1.1,3.086-2.2,1.231.753,8.641-5.826,1.441,1.987,13.712,6.309.2-.685,2.541.2-.826.48-.478,3.635.755,3.975-.55,1.44.55-.752,3.427h3.086l1.649,1.781,1.436,2.332-1.987,1.305,1.44,1.025,2.123-.892.754-4.457,3.978-.754,6.1-.546-.553-5.075.553-1.919,6.511-.417.891,3.433-2.538,4.319,1.647,2.536,1.438.345.346-1.031,1.643-.407,1.988,2.535,17.282-3.977,1.989,2.536,6.167,3.638,7-3.092,7.953-2.665,1.646,7.743-1.51-7.059,1.1-.893,7.612-2.193,5.415-2.126,4.661-3.638,8.3.417,15.7,2.674,3.432-3.224-1.99-1.989-.548-2.33,2.33-2.536-1.441-2.333-.548-2.948,2.2-.48.135-7.816-3.909.206-.96-4.117,1.99-2.74-.141-1.439-.207-2.127-3.084-.2-3.017,1.436-.959-5.759,2.536-.2.754-2.128,3.568.687-.139-4.321-2.538.343-.342-3.975-2.741-.481-.139-3.635,1.028-.2-1.781-9.188h1.988l.549,1.3,1.439-.206.548,5.416,5.007-.754,5.416-.891,2.535-3.978,14.264-.343,7.953,1.1,3.431,1.788,2.331,1.1.685,1.44,5.967-4.663,5.414-3.978,2.882,5.42,3.423-.755,2.2,3.086,9.734-3.637.344,2.744-.344,2.124,3.571-.341,2.739-1.783,1.78,2.124-3.222,1.851.55,1.919h3.017l.412,3.293,3.905,4.525-.343,5.007-1.641.2v-1.44l-1.58.546v3.017l7.2-.137.891-1.438,6.511-.891.687,3.909h3.429l-.552-2.677,5.832-.341.684,1.235H1319v-1.1l3.013-.408v-3.7l-1.233-.552.342-2.535h1.987l.2-1.1,2.335-.549-.894-4.661-1.851.548-.681-2.677v-3.631l-.21-3.088,3.839-4.525,4.869,2.4,1.78,1.441h4.869l1.241,1.027.407-2.879,2.673-1.437V562.89l-1.231-5.006,3.014-2.675-1.03-5.417-1.094-4.524-9.192-.344-.958-3.427h3.638l-.688-7.957-.412-5.21,2.192-.409-.548-3.429,3.976-.48-.748-5.073-6.312-.344-1.233-2.54-2.745.346-1.027-1.714Z" transform="translate(-47.576 -20.631)" fill="#e3e3e3" stroke="#404040" stroke-miterlimit="10" stroke-width="0.25" fill-rule="evenodd"/>
    <path id="path96" d="M1205.724,361.078l2.335-3.428,4.32-.343.342,2.2,3.085-.206.549-5.211,3.566-3.428,4.869,1.441,1.649-3.635,5.07-1.1-1.645-2.467.343-2.4,3.976,1.851.208-3.634,2.88-.686,5.758,5.76,1.646-.754-1.3-2.879,3.085.892s0-2.537,1.783-2.676c1.853-.2,1.991,0,1.991,0l-.343,1.991,3.429-1.1.889-3.635,3.773-.343,1.989-2.878.753-3.431,4.323-1.643,2.122-3.019,6.721-.547,9.188,2.331,3.975,3.222,3.225,3.637-.548,3.976,6.171,2.33,6.1-4.184,9.53,3.291,2.191,5.761,3.775-.892,1.093-4.526,16.254-10.285,6.649,1.441,4.869-2.88,5.416-.341,4.526-4.321,1.439-2.88,4.869-.206,3.908-3.222,2.948.686-.548,3.086h-1.987l.34,5.072,6.858,5.212,3.086-1.782,2.126,2.126-.685,8.638,1.991,3.087,4.454,3.772.891,3.291,3.292,2.329,6.515,1.441,7.748,7.2,2.125-.55,2.742,2.878,2.264,2.4-2.47,2.123,2.676,4.114,1.85,1.989-4.319.55-.754,2.538,4.183,2.191L1408,384.185l-3.768.344,1.1,2.879,2.673.343.89,3.84,1.308,2.125-.208,1.987-2.332.893-1.782,7.611-3.631-.206-.549,2.193,2.877.343-4.663,2.674-.206,8.5,1.645.344v2.878l2.2,1.852-.208,5.553,1.784,1.3,3.427.344-.137,1.985-3.085.344.549,2.194-1.988,1.989-.208,1.577.069.684-.959,2.2-3.636-.342-10.079-2.2-.341,1.1-4.53.206-1.092,1.643-1.99,4.458,7.06,3.292-3.083,2.467-4.869.961-.342,1.577.89,3.292-4.867,2.674-.34,4.866-2.881-.342-1.785,2.538-2.194-.206v1.782l4.662,3.292-.342,1.44-4.662-.755-.89,1.1-2.747.549-2.123,3.978v5.553l-4.18-1.234V479.56l-2.333-.206-1.1,5.074-2.879-1.233-1.986,2.879,3.633,3.976-1.3,1.441-4.662-5.417-1.1,1.438-1.579-1.438-4.523.343-.553,3.084-2.535.137-1.987-2.675-1.44,1.1-1.647-.551-2.333,2.539.549,3.017,1.784,1.439s2.4,3.976,2.2,4.184c-.208.135-1.646,1.234-1.646,1.234l.41,3.29h1.03V505l1.439,2.33-1.026-1.714-2.539.274-.547-1.441-2.539.55v3.222l-3.221.414-7.408-6.171-5.621,7.4-.891,2.675.755,2.538-2.33.89-2.4-1.782-1.575,1.991-1.1-1.443,1.232-3.086-3.566-4.112,1.443-2.742-4.735-4.458-3.769-2.192.755-1.989-2.194-2.2.755-2.466-1.99-1.853-4.526-.547.343-2.331-2.332-.55.344-2.468-1.437-1.1.889-2.743-2.467-2.33-2.4-1.1,1.854-3.773-3.3-2.674-2.466,3.427-1.989,1.03-1.306,1.851-1.982.55L1271,478.463l-3.292-1.441-4.866.55-1.1-2.333-2.676,1.237-1.437-1.784-8.5.34-3.563-3.014-3.774-.549-3.084-3.771-2.193-.207-.344-1.987-3.432-2.33-1.779,1.438-1.645-1.438,1.783-1.989-3.912-2.882-6.854.139-1.85,1.37.2.481-.552-1.1-1.439-4.182-1.441-.481-1.439-3.84,2.675-8.431,12.27,2.537,3.088-.411.2,1.3,2.884-1.3-.549-3.223,5.006-6.17-2.126-.48.134-6.172-2.125-.136.892-4.525,8.844,1.236,1.234-3.429-3.978-.892-2.125-3.429,5.556-.892-4.324-9.53-3.42.685-5.219-.685-2.329-3.635-2.536-1.1-1.1-10.834-5.757-1.577-6.1.342v-1.439l2.537-2.332-3.087-.2-2.191,2.193-5.556-3.976-1.989-.549-.892-3.428L1202.3,380l-.412-1.988,1.987-4.113,1.442-5.073,1.3-3.018-.411-3.632-.96-.481.477-.618Z" transform="translate(-55.125 -11.558)" fill="#e3e3e3" stroke="#404040" stroke-miterlimit="10" stroke-width="0.25" fill-rule="evenodd"/>
    <path id="path98" d="M1076.644,316.745l-1.1-.96,3.771-8.981-.339-2.539h2.877V299.6l4.318.341.686-3.975-3.567-.686-1.984-5.415,1.1-2.2-.755-4.32.551-3.223,2.74.138-.2-8.434h-3.086l.207-1.3-4.731-3.223-1.031,2.878h-1.645l.549-5.417-5.211-4.113-2.4-.55,2.539-5.073s-1.235,1.783-1.235-1.44.685-2.537.685-2.537l3.427-1.235-.342-2.879,1.781-2.331.2-3.085-2.191-1.783,2.74-1.3-1.1-3.427-4.114-5.966,1.579-3.017,1.306.686-.9,1.987,3.223,5.419,3.563-.206,1.1-5.349-3.224-3.084.207-6.172,2.333-.136,1.781-4.184-2.333-.343.135-2.536h3.087l-1.986-2.88v-3.566h-3.017l2.672-4.387-1.1-2.467-3.564-1.853-.755-3.564-1.1-3.085,2.88-2.881v-3.771l1.646-1.988,1.436-2.194,2.2-.343,1.236-1.234,2.189-.549,2.335-1.987,1.237.342.753.892h1.1l1.44-1.99,1.439-.685-.41-3.428-1.988-.55-2.676-1.094-1.986-.892.341-3.224,3.086-.958.2-1.236h1.784l.891,3.429h2.2l.683-2.535,3.224-.138.205-3.428-2.675-.412-4.525-4.869-2.2-.891-2.467.753v-7.4l2.332-1.3.342-1.784s-.893-.2-.548-3.085a12.355,12.355,0,0,1,1.642-4.869l2.127-2.468,4.323-1.44-.142,3.565,2.538,3.771,2.881-2.331,1.575-3.426,7.064-3.567,5.074.343,3.012,5.417,4.53.684,1.643,4.525,3.978,5.622,4.664.343-1.236,3.976,3.016.139-2.877,4.182.89,5.554,3.088,5.965.89,2.88h1.989l5.072,9.188,8.091,1.1,3.226,4.869,2.4,7.612-2.747,3.427-4.524-.959-6.1,1.988-4.871.549-2.333,2.332,4.666,5.414-.344,5.076,4.66,2.124,3.088,3.428v1.441l-2.674,2.4-.415,4.663,4.87,5.623-1.028,6.855-1.99,4.321,3.017,2.33,4.525-3.291,2.881.961,1.646-1.646,9.87,2.674,2.744-.684,1.441,5.21,10.421-1.234,10.147-5.417,1.782,1.781,2.746-2.536,4.113,1.645.343,8.092,3.769,4.525v4.182l5.623.343,3.976-1.99,3.564,1.647-.89,3.427-3.565,1.783,1.032,5.967,4.932.137-1.1,6.17,2.676,2.538-.14,3.908,4.117.961.892,8.432,3.29,4.526-6.375.684-1.924,2.88,1.786,1.645-.895,3.635,3.57,8.844,7.06,2.333,5.553,10.078,6.307.206.072.069-1.3.068-.889,3.635-3.429,1.1.342-1.991s-.137-.2-1.99,0c-1.783.139-1.783,2.675-1.783,2.675l-3.086-.891,1.3,2.879-1.646.754-5.758-5.76-2.88.686-.207,3.634-3.978-1.851-.341,2.4,1.645,2.467-5.07,1.1-1.649,3.635-4.869-1.441-3.566,3.428-.549,5.211-3.085.206-.343-2.2-4.319.343-2.335,3.428-.476.618-2.607-1.166-6.17,3.292-.48-1.645s-4.732-.893-3.979-.893c.688,0-.545,4.662-.545,4.662l-1.1.754-3.772.342-4.73-1.78-2.123-1.44-.754-4.184,2.739-2.675-.2-2.536-4.318-1.234-.206-2.538-2.124-.206-.9.344-4.316-3.224.892-2.673-6.719-10.287-.483-9.05-3.289-1.44-7.953,3.222-.893,2.743-1.03.343-.2-2.126-1.787-.753-1.988,1.439-5.619-2.676-2.881,2.676h-1.781l-2.33.549.34,1.989-2.535,1.645-2.333,2.674-5.071-2.193-7-2.677-3.632,2.334-1.44-1.578-2.2-.756-2.467,2.2-.549-3.429-6.719-.409-2.88-3.02-.888,3.567-2.676.548-.754-1.78-2.675-.207v1.3h-1.649l-.683-.959-2.464-.343-.414-.138Z" transform="translate(-46.853)" fill="#e3e3e3" stroke="#404040" stroke-miterlimit="10" stroke-width="0.25" fill-rule="evenodd"/>
    <path id="path100" d="M906.064,244.59l.687-.206,4.389-5L908.4,236.91l3.084-3.977-.341-7.746L905.86,214.7l-.139-6.309,1.577-4.112,1.305-4.524,3.016-1.853.755-6.65,3.015-6.858,3.017-4.661,4.733-.549.891-5.212,4.661-3.084,2.194-7.955,9.532-2.878,5.759,2.535,2.537,2.537,3.975-.547.893-4.524,3.977-2.676,22.35,1.44,11.934-.548v6.513h4.112v.137l5.074,2.54,8.979-7.2,3.84-1.784,2.674-7.407-1.229-2.877,3.905-2.538.962-3.772-2.193-1.852-.552-3.224,5.076-.547,3.085,1.1,3.015-1.3,11.933,6.72,3.563-.206,3.29-1.781,3.777,2.537,4.311-2.88,4.326-5.828.546,3.635,2.879-.755,2.194-5.9,4.869-.754,5.759,2.331,4.319-2.125,1.443,2.878-1.785,2.126a12.355,12.355,0,0,0-1.642,4.869c-.345,2.88.547,3.085.547,3.085l-.342,1.784-2.332,1.3v7.4l2.467-.753,2.194.891,4.526,4.869,2.675.412-.206,3.428-3.224.138-.683,2.535h-2.2l-.892-3.429h-1.783l-.2,1.236-3.086.958-.341,3.224,1.986.893,2.675,1.094,1.988.55.411,3.428-1.44.685-1.44,1.99h-1.1l-.753-.892-1.237-.342-2.335,1.987-2.19.549-1.236,1.234-2.2.343-1.436,2.194-1.646,1.988v3.771l-2.88,2.881,1.1,3.085.755,3.564,3.564,1.853,1.1,2.467-2.672,4.387h3.017v3.566l1.986,2.88h-3.087l-.135,2.536,2.333.343-1.781,4.184-2.333.136-.206,6.172,3.224,3.084-1.1,5.349-3.564.206-3.222-5.419.9-1.987-1.306-.686-1.579,3.017,4.114,5.966,1.1,3.427-2.74,1.3,2.192,1.783-.206,3.085-1.78,2.331.341,2.879-3.427,1.235s-.684-.687-.684,2.537,1.235,1.44,1.235,1.44l-2.539,5.073,2.4.55,5.211,4.113-.549,5.417h1.645l1.031-2.878,4.73,3.223-.207,1.3h3.087l.2,8.434-2.74-.138-.551,3.223.755,4.32-1.1,2.2,1.983,5.415,3.568.686-.686,3.975-4.319-.341v4.661h-2.876l.339,2.539-3.772,8.981,1.1.96.414.138,2.464.343-2.536-.343-3.428,6.17-2.741-.958-.55,3.838-3.566.549s-.549-.412-.754,3.223c-.138,3.635-1.784,1.234-1.784,1.234l-2.674.755-1.44,2.673s-1.99-1.027-5.62.756-1.443-1.647-1.443-1.647l-2.193-.343-.478,1.233-5.077-.137-1.235,1.442-3.839-1.852-.342-3.91-7.062.687-.343-1.234H1020.5l-.207,2.466-1.99.207v1.783l-1.785.958-.342,2.128-1.988.344-1.442-1.236-3.427-.206c.275.276-.134,0-.549-2.467l-3.769,2.123-1.645-.546,2.878-5.76-3.771.343-3.633-4.456-.343-5.074,2.538-.207.685,1.3,2.4-2.194-.958-1.988-6.312.343-3.905-4.456-.96-4.32-3.91-.2-.412,2.672h-1.575l-1.44,3.838-3.427-.547h-.754l-1.442,1.234-2.2-.138-.477,3.771-4.186-1.438-1.1,2.124-1.029-1.987-3.632.41-1.784,2.127-1.852.549-2.676-3.223-4.73,2.879.2-2.742L952,316.928l-.549-2.675-5.965-.754-.344-3.565,3.566-.206-.689-4.319,1.445-1.1-.892-3.77-1.99.343-.55-2.879-2.536-2.536.343-3.223-1.235-.756-2.743,2.539h-6.444l-6.718-1.782v1.782l-2.333.548v-2.536l-5.551-.343v-2.332l-1.648-.2.206-2.127,1.781-.959-.34-5.554-2.746-.892-2.465-5.073-.138-5.212-2.744-.55-1.1-1.987h-6.307l-.343-6.1,1.3-3.292-1.646-3.77,1.99-3.085-.344-2.882,1.988-.136-.206-2.949Z" transform="translate(-36.719 -0.045)" fill="#e3e3e3" stroke="#404040" stroke-miterlimit="10" stroke-width="0.25" fill-rule="evenodd"/>
    <g id="_303340112" data-name=" 303340112" transform="translate(315.582 216.647)">
      <g id="g103" transform="translate(690.778 480.663)">
        <path id="_311575680" data-name=" 311575680" d="M1055.24,740.4a2.958,2.958,0,1,0,0-5.914,2.957,2.957,0,1,0,0,5.914Z" transform="translate(-1052.283 -734.485)" fill="#e3e3e3" stroke="#404040" stroke-miterlimit="10" stroke-width="0.25" fill-rule="evenodd"/>
        <path id="_311575632" data-name=" 311575632" d="M1055.33,739.113a1.615,1.615,0,0,0,1.65-1.583,1.673,1.673,0,0,0-1.65-1.653,1.618,1.618,0,0,0-1.582,1.653,1.559,1.559,0,0,0,1.582,1.583" transform="translate(-1052.373 -734.571)" fill="#e3e3e3" stroke="#404040" stroke-miterlimit="10" stroke-width="0.25"/>
      </g>
      <g id="g107" transform="translate(847.678 299.635)">
        <path id="_311575512" data-name=" 311575512" d="M1222.49,547.573a2.933,2.933,0,0,0,2.956-2.958,2.99,2.99,0,0,0-2.956-3.023,3.048,3.048,0,0,0-3.023,3.023A2.991,2.991,0,0,0,1222.49,547.573Z" transform="translate(-1219.467 -541.592)" fill="#e3e3e3" stroke="#404040" stroke-miterlimit="10" stroke-width="0.25" fill-rule="evenodd"/>
        <path id="_311575464" data-name=" 311575464" d="M1222.58,546.288a1.561,1.561,0,0,0,1.585-1.584,1.618,1.618,0,0,0-1.585-1.651,1.676,1.676,0,0,0-1.649,1.651,1.619,1.619,0,0,0,1.649,1.584" transform="translate(-1219.557 -541.682)" fill="#e3e3e3" stroke="#404040" stroke-miterlimit="10" stroke-width="0.25"/>
      </g>
      <g id="g111" transform="translate(859.985 362.75)">
        <path id="_311575344" data-name=" 311575344" d="M1235.54,614.826a2.994,2.994,0,0,0,2.954-3.024,2.957,2.957,0,1,0-5.914,0A3,3,0,0,0,1235.54,614.826Z" transform="translate(-1232.58 -608.844)" fill="#e3e3e3" stroke="#404040" stroke-miterlimit="10" stroke-width="0.25" fill-rule="evenodd"/>
        <path id="_311575296" data-name=" 311575296" d="M1235.626,613.538a1.672,1.672,0,0,0,1.648-1.646,1.652,1.652,0,0,0-3.3,0,1.674,1.674,0,0,0,1.654,1.646" transform="translate(-1232.666 -608.934)" fill="#e3e3e3" stroke="#404040" stroke-miterlimit="10" stroke-width="0.25"/>
      </g>
      <g id="g115" transform="translate(1038.677 330.576)">
        <path id="_311575176" data-name=" 311575176" d="M1426.011,580.541a2.99,2.99,0,0,0,0-5.98,2.99,2.99,0,1,0,0,5.98Z" transform="translate(-1422.984 -574.561)" fill="#e3e3e3" stroke="#404040" stroke-miterlimit="10" stroke-width="0.25" fill-rule="evenodd"/>
        <path id="_311575128" data-name=" 311575128" d="M1426.1,579.254a1.555,1.555,0,0,0,1.579-1.584,1.614,1.614,0,0,0-1.579-1.65,1.675,1.675,0,0,0-1.652,1.65,1.617,1.617,0,0,0,1.652,1.584" transform="translate(-1423.074 -574.651)" fill="#e3e3e3" stroke="#404040" stroke-miterlimit="10" stroke-width="0.25"/>
      </g>
      <g id="g119" transform="translate(917.394 138.129)">
        <path id="_311575008" data-name=" 311575008" d="M1296.711,375.483a2.991,2.991,0,1,0-2.959-3.026A2.992,2.992,0,0,0,1296.711,375.483Z" transform="translate(-1293.752 -369.501)" fill="#e3e3e3" stroke="#404040" stroke-miterlimit="10" stroke-width="0.25" fill-rule="evenodd"/>
        <path id="_311574960" data-name=" 311574960" d="M1296.8,374.2a1.671,1.671,0,0,0,1.646-1.651,1.649,1.649,0,0,0-3.3,0,1.673,1.673,0,0,0,1.65,1.651" transform="translate(-1293.838 -369.591)" fill="#e3e3e3" stroke="#404040" stroke-miterlimit="10" stroke-width="0.25"/>
      </g>
      <g id="g123" transform="translate(813.645 187.15)">
        <path id="_311574840" data-name=" 311574840" d="M1186.159,427.648a2.957,2.957,0,1,0,0-5.913,2.956,2.956,0,0,0,0,5.913Z" transform="translate(-1183.203 -421.735)" fill="#e3e3e3" stroke="#404040" stroke-miterlimit="10" stroke-width="0.25" fill-rule="evenodd"/>
        <path id="_311574792" data-name=" 311574792" d="M1186.25,426.428a1.65,1.65,0,1,0,0-3.3,1.652,1.652,0,0,0,0,3.3" transform="translate(-1183.293 -421.821)" fill="#e3e3e3" stroke="#404040" stroke-miterlimit="10" stroke-width="0.25"/>
      </g>
      <g id="g127" transform="translate(819.005 55.073)">
        <path id="_311574672" data-name=" 311574672" d="M1191.875,286.983a2.991,2.991,0,1,0,0-5.982,2.991,2.991,0,0,0,0,5.982Z" transform="translate(-1188.915 -281.001)" fill="#e3e3e3" stroke="#404040" stroke-miterlimit="10" stroke-width="0.25" fill-rule="evenodd"/>
        <path id="_311574624" data-name=" 311574624" d="M1191.965,285.7a1.674,1.674,0,0,0,1.648-1.651,1.615,1.615,0,0,0-1.648-1.582,1.554,1.554,0,0,0-1.584,1.582,1.613,1.613,0,0,0,1.584,1.651" transform="translate(-1189.005 -281.091)" fill="#e3e3e3" stroke="#404040" stroke-miterlimit="10" stroke-width="0.25"/>
      </g>
      <g id="g131" transform="translate(596.998)">
        <path id="_311574504" data-name=" 311574504" d="M955.311,228.232a2.956,2.956,0,1,0-2.954-2.958A2.991,2.991,0,0,0,955.311,228.232Z" transform="translate(-952.357 -222.319)" fill="#e3e3e3" stroke="#404040" stroke-miterlimit="10" stroke-width="0.25" fill-rule="evenodd"/>
        <path id="_311574456" data-name=" 311574456" d="M955.4,226.94a1.616,1.616,0,0,0,1.652-1.581,1.676,1.676,0,0,0-1.652-1.649,1.616,1.616,0,0,0-1.581,1.649,1.556,1.556,0,0,0,1.581,1.581" transform="translate(-952.447 -222.405)" fill="#e3e3e3" stroke="#404040" stroke-miterlimit="10" stroke-width="0.25"/>
      </g>
      <g id="g135" transform="translate(411.428 222.354)">
        <path id="_311574336" data-name=" 311574336" d="M757.583,465.226a3.052,3.052,0,0,0,3.025-3.023,2.992,2.992,0,0,0-5.983,0A3.038,3.038,0,0,0,757.583,465.226Z" transform="translate(-754.625 -459.246)" fill="#e3e3e3" stroke="#404040" stroke-miterlimit="10" stroke-width="0.25" fill-rule="evenodd"/>
        <path id="_311574288" data-name=" 311574288" d="M757.673,463.941a1.672,1.672,0,0,0,1.648-1.649,1.614,1.614,0,0,0-1.648-1.582,1.556,1.556,0,0,0-1.582,1.582,1.614,1.614,0,0,0,1.582,1.649" transform="translate(-754.715 -459.336)" fill="#e3e3e3" stroke="#404040" stroke-miterlimit="10" stroke-width="0.25"/>
      </g>
      <g id="g139" transform="translate(315.303 200.571)">
        <path id="_311574168" data-name=" 311574168" d="M655.155,441.948a2.957,2.957,0,1,0,0-5.913,2.957,2.957,0,0,0,0,5.913Z" transform="translate(-652.2 -436.035)" fill="#e3e3e3" stroke="#404040" stroke-miterlimit="10" stroke-width="0.25" fill-rule="evenodd"/>
        <path id="_309998120" data-name=" 309998120" d="M655.245,440.727a1.65,1.65,0,0,0,0-3.3,1.651,1.651,0,0,0,0,3.3" transform="translate(-652.29 -436.121)" fill="#e3e3e3" stroke="#404040" stroke-miterlimit="10" stroke-width="0.25"/>
      </g>
      <g id="g143" transform="translate(161.504 239.199)">
        <path id="_309998024" data-name=" 309998024" d="M491.278,483.107a2.957,2.957,0,1,0,0-5.912,2.956,2.956,0,1,0,0,5.912Z" transform="translate(-488.321 -477.195)" fill="#e3e3e3" stroke="#404040" stroke-miterlimit="10" stroke-width="0.25" fill-rule="evenodd"/>
        <path id="_309997976" data-name=" 309997976" d="M491.368,481.89a1.671,1.671,0,0,0,1.65-1.649,1.614,1.614,0,0,0-1.65-1.579,1.556,1.556,0,0,0-1.583,1.579,1.614,1.614,0,0,0,1.583,1.649" transform="translate(-488.411 -477.285)" fill="#e3e3e3" stroke="#404040" stroke-miterlimit="10" stroke-width="0.25"/>
      </g>
      <g id="g147" transform="translate(0 247.998)">
        <path id="_309997856" data-name=" 309997856" d="M319.186,492.485a2.957,2.957,0,1,0-2.954-2.957A2.934,2.934,0,0,0,319.186,492.485Z" transform="translate(-316.232 -486.571)" fill="#e3e3e3" stroke="#404040" stroke-miterlimit="10" stroke-width="0.25" fill-rule="evenodd"/>
        <path id="_309997808" data-name=" 309997808" d="M319.272,491.268a1.674,1.674,0,0,0,1.651-1.651,1.651,1.651,0,0,0-3.3,0,1.672,1.672,0,0,0,1.649,1.651" transform="translate(-316.318 -486.661)" fill="#e3e3e3" stroke="#404040" stroke-miterlimit="10" stroke-width="0.25"/>
      </g>
      <g id="g151" transform="translate(240.786 305.629)">
        <path id="_309997688" data-name=" 309997688" d="M575.756,553.961A2.991,2.991,0,1,0,572.8,551,3.042,3.042,0,0,0,575.756,553.961Z" transform="translate(-572.799 -547.979)" fill="#e3e3e3" stroke="#404040" stroke-miterlimit="10" stroke-width="0.25" fill-rule="evenodd"/>
        <path id="_309997640" data-name=" 309997640" d="M575.846,552.673a1.572,1.572,0,0,0,1.649-1.581,1.616,1.616,0,1,0-3.231,0,1.555,1.555,0,0,0,1.582,1.581" transform="translate(-572.889 -548.069)" fill="#e3e3e3" stroke="#404040" stroke-miterlimit="10" stroke-width="0.25"/>
      </g>
      <g id="g155" transform="translate(426.761 120.183)">
        <path id="_309997520" data-name=" 309997520" d="M773.918,356.291a2.956,2.956,0,1,0-2.955-2.955A2.931,2.931,0,0,0,773.918,356.291Z" transform="translate(-770.963 -350.379)" fill="#e3e3e3" stroke="#404040" stroke-miterlimit="10" stroke-width="0.25" fill-rule="evenodd"/>
        <path id="_309997472" data-name=" 309997472" d="M774.008,355a1.614,1.614,0,0,0,1.651-1.58,1.674,1.674,0,0,0-1.651-1.65,1.614,1.614,0,0,0-1.58,1.65,1.554,1.554,0,0,0,1.58,1.58" transform="translate(-771.053 -350.465)" fill="#e3e3e3" stroke="#404040" stroke-miterlimit="10" stroke-width="0.25"/>
      </g>
      <g id="g159" transform="translate(275.567 76.114)">
        <path id="_309997352" data-name=" 309997352" d="M612.815,309.4a2.99,2.99,0,1,0-2.955-2.954A2.976,2.976,0,0,0,612.815,309.4Z" transform="translate(-609.86 -303.421)" fill="#e3e3e3" stroke="#404040" stroke-miterlimit="10" stroke-width="0.25" fill-rule="evenodd"/>
        <path id="_309997304" data-name=" 309997304" d="M612.905,308.115a1.615,1.615,0,0,0,1.653-1.58,1.675,1.675,0,0,0-1.653-1.652,1.615,1.615,0,0,0-1.58,1.652,1.555,1.555,0,0,0,1.58,1.58" transform="translate(-609.95 -303.511)" fill="#e3e3e3" stroke="#404040" stroke-miterlimit="10" stroke-width="0.25"/>
      </g>
      <g id="g163" transform="translate(217.745 59.265)">
        <path id="_309997184" data-name=" 309997184" d="M551.273,291.452a2.982,2.982,0,0,0,2.959-2.957,2.992,2.992,0,1,0-5.984,0A3,3,0,0,0,551.273,291.452Z" transform="translate(-548.248 -285.468)" fill="#e3e3e3" stroke="#404040" stroke-miterlimit="10" stroke-width="0.25" fill-rule="evenodd"/>
        <path id="_303323472" data-name=" 303323472" d="M551.363,290.166a1.553,1.553,0,0,0,1.581-1.581,1.615,1.615,0,0,0-1.581-1.652,1.676,1.676,0,0,0-1.65,1.652,1.615,1.615,0,0,0,1.65,1.581" transform="translate(-548.338 -285.558)" fill="#e3e3e3" stroke="#404040" stroke-miterlimit="10" stroke-width="0.25"/>
      </g>
      <g id="g167" transform="translate(226.958 180.619)">
        <path id="_303323352" data-name=" 303323352" d="M561.021,420.76a2.992,2.992,0,1,0-2.956-3.026A2.993,2.993,0,0,0,561.021,420.76Z" transform="translate(-558.065 -414.776)" fill="#e3e3e3" stroke="#404040" stroke-miterlimit="10" stroke-width="0.25" fill-rule="evenodd"/>
        <path id="_303323304" data-name=" 303323304" d="M561.111,419.472a1.674,1.674,0,0,0,1.652-1.65,1.615,1.615,0,0,0-1.652-1.582,1.555,1.555,0,0,0-1.58,1.582,1.615,1.615,0,0,0,1.58,1.65" transform="translate(-558.155 -414.866)" fill="#e3e3e3" stroke="#404040" stroke-miterlimit="10" stroke-width="0.25"/>
      </g>
      <g id="g171" transform="translate(123.636 142.62)">
        <path id="_303323184" data-name=" 303323184" d="M450.926,380.2a2.957,2.957,0,1,0-2.955-2.958A2.993,2.993,0,0,0,450.926,380.2Z" transform="translate(-447.971 -374.286)" fill="#e3e3e3" stroke="#404040" stroke-miterlimit="10" stroke-width="0.25" fill-rule="evenodd"/>
        <path id="_303323136" data-name=" 303323136" d="M451.016,378.983a1.676,1.676,0,0,0,1.653-1.651,1.616,1.616,0,0,0-1.653-1.579,1.554,1.554,0,0,0-1.581,1.579,1.615,1.615,0,0,0,1.581,1.651" transform="translate(-448.061 -374.376)" fill="#e3e3e3" stroke="#404040" stroke-miterlimit="10" stroke-width="0.25"/>
      </g>
      <g id="g175" transform="translate(646.777 208.188)">
        <path id="_303323016" data-name=" 303323016" d="M1008.351,450.135a3,3,0,0,0,2.961-3.027,2.957,2.957,0,0,0-5.914,0A2.992,2.992,0,0,0,1008.351,450.135Z" transform="translate(-1005.399 -444.152)" fill="#e3e3e3" stroke="#404040" stroke-miterlimit="10" stroke-width="0.25" fill-rule="evenodd"/>
        <path id="_303322968" data-name=" 303322968" d="M1008.437,448.85a1.675,1.675,0,0,0,1.653-1.651,1.652,1.652,0,0,0-3.3,0,1.674,1.674,0,0,0,1.649,1.651" transform="translate(-1005.484 -444.242)" fill="#e3e3e3" stroke="#404040" stroke-miterlimit="10" stroke-width="0.25"/>
      </g>
      <g id="g179" transform="translate(663.207 300.044)">
        <path id="_303322848" data-name=" 303322848" d="M1025.862,548.01a3.052,3.052,0,0,0,3.027-3.025,2.992,2.992,0,0,0-5.984,0A3.04,3.04,0,0,0,1025.862,548.01Z" transform="translate(-1022.905 -542.028)" fill="#e3e3e3" stroke="#404040" stroke-miterlimit="10" stroke-width="0.25" fill-rule="evenodd"/>
        <path id="_303322800" data-name=" 303322800" d="M1025.952,546.726a1.629,1.629,0,0,0,1.652-1.65,1.574,1.574,0,0,0-1.652-1.581,1.553,1.553,0,0,0-1.58,1.581,1.612,1.612,0,0,0,1.58,1.65" transform="translate(-1022.995 -542.118)" fill="#e3e3e3" stroke="#404040" stroke-miterlimit="10" stroke-width="0.25"/>
      </g>
      <g id="g183" transform="translate(559.181 499.023)">
        <path id="_303322680" data-name=" 303322680" d="M914.949,759.959a2.956,2.956,0,1,0,0-5.911,2.956,2.956,0,0,0,0,5.911Z" transform="translate(-912.062 -754.048)" fill="#e3e3e3" stroke="#404040" stroke-miterlimit="10" stroke-width="0.25" fill-rule="evenodd"/>
        <path id="_303322632" data-name=" 303322632" d="M915.039,758.74a1.65,1.65,0,0,0,0-3.3,1.656,1.656,0,0,0,0,3.3" transform="translate(-912.152 -754.133)" fill="#e3e3e3" stroke="#404040" stroke-miterlimit="10" stroke-width="0.25"/>
      </g>
      <g id="g187" transform="translate(1130.535 261.406)">
        <path id="_303322512" data-name=" 303322512" d="M1523.884,506.77a2.957,2.957,0,1,0,0-5.913,2.957,2.957,0,1,0,0,5.913Z" transform="translate(-1520.862 -500.857)" fill="#e3e3e3" stroke="#404040" stroke-miterlimit="10" stroke-width="0.25" fill-rule="evenodd"/>
        <path id="_309850832" data-name=" 309850832" d="M1523.974,505.548a1.652,1.652,0,0,0,0-3.3,1.65,1.65,0,0,0,0,3.3" transform="translate(-1520.952 -500.943)" fill="#e3e3e3" stroke="#404040" stroke-miterlimit="10" stroke-width="0.25"/>
      </g>
      <g id="g191" transform="translate(803.672 649.459)">
        <path id="_309850712" data-name=" 309850712" d="M1175.606,920.258a2.958,2.958,0,1,0-3.03-2.958A2.976,2.976,0,0,0,1175.606,920.258Z" transform="translate(-1172.577 -914.343)" fill="#e3e3e3" stroke="#404040" stroke-miterlimit="10" stroke-width="0.25" fill-rule="evenodd"/>
        <path id="_309850664" data-name=" 309850664" d="M1175.7,919.036a1.651,1.651,0,0,0,0-3.3,1.65,1.65,0,1,0,0,3.3" transform="translate(-1172.667 -914.429)" fill="#e3e3e3" stroke="#404040" stroke-miterlimit="10" stroke-width="0.25"/>
      </g>
      <g id="g195" transform="translate(648.702 452.337)">
        <path id="_309850496" data-name=" 309850496" d="M1010.405,710.214a2.956,2.956,0,1,0-2.955-2.956A2.934,2.934,0,0,0,1010.405,710.214Z" transform="translate(-1007.45 -704.302)" fill="#e3e3e3" stroke="#404040" stroke-miterlimit="10" stroke-width="0.25" fill-rule="evenodd"/>
        <path id="_309850520" data-name=" 309850520" d="M1010.49,709a1.65,1.65,0,1,0-1.655-1.653A1.672,1.672,0,0,0,1010.49,709" transform="translate(-1007.535 -704.388)" fill="#e3e3e3" stroke="#404040" stroke-miterlimit="10" stroke-width="0.25"/>
      </g>
    </g>
    <g id="_303341048" data-name=" 303341048" transform="translate(867.478 320.33)">
      <path id="_303340304" data-name=" 303340304" d="M907.324,338.776a2.99,2.99,0,1,0-3.025-3.024A3.037,3.037,0,0,0,907.324,338.776Z" transform="translate(-904.299 -332.797)" fill="#e3e3e3" stroke="#404040" stroke-miterlimit="10" stroke-width="0.25" fill-rule="evenodd"/>
      <path id="_303340736" data-name=" 303340736" d="M907.414,337.493a1.615,1.615,0,0,0,1.58-1.651,1.554,1.554,0,0,0-1.58-1.58,1.613,1.613,0,0,0-1.651,1.58,1.673,1.673,0,0,0,1.651,1.651" transform="translate(-904.389 -332.887)" fill="#e3e3e3" stroke="#404040" stroke-miterlimit="10" stroke-width="0.25"/>
    </g>
  </g>
</svg>
